<svg width="180" height="41" viewBox="0 0 180 41" fill="none" xmlns="http://www.w3.org/2000/svg">
<g clip-path="url(#clip0_170_4755)">
<path d="M20.8671 16.3305L18.1601 8.93555L15.4521 16.3305H20.8681H20.8671ZM57.0301 19.2965C57.8301 20.0905 58.8162 20.4885 59.9902 20.4885C61.1642 20.4885 62.1502 20.0905 62.9501 19.2965C63.7511 18.5025 64.1511 17.5045 64.1511 16.3045C64.1511 15.1045 63.7511 14.1065 62.9511 13.3125C62.1511 12.5175 61.1642 12.1205 59.9911 12.1205C58.8162 12.1205 57.8301 12.5175 57.0291 13.3125C56.2291 14.1065 55.8291 15.1045 55.8291 16.3045C55.8291 17.5045 56.2291 18.5025 57.0291 19.2965H57.0301ZM76.0951 20.5415C74.8852 20.5415 73.8811 20.1435 73.0812 19.3495C72.2812 18.5375 71.8811 17.5225 71.8811 16.3045C71.8811 15.0865 72.2812 14.0805 73.0812 13.2855C73.8811 12.4735 74.8862 12.0675 76.0951 12.0675C77.3051 12.0675 78.3092 12.4735 79.1091 13.2855C79.9091 14.0805 80.3091 15.0865 80.3091 16.3045C80.3091 17.5225 79.9091 18.5375 79.1091 19.3495C78.3092 20.1435 77.3041 20.5415 76.0951 20.5415ZM162.712 20.5415C161.502 20.5415 160.498 20.1435 159.698 19.3495C158.897 18.5375 158.497 17.5225 158.497 16.3045C158.497 15.0865 158.897 14.0805 159.698 13.2855C160.498 12.4735 161.502 12.0675 162.712 12.0675C163.921 12.0675 164.926 12.4735 165.726 13.2855C166.526 14.0805 166.926 15.0865 166.926 16.3045C166.926 17.5225 166.526 18.5375 165.726 19.3495C164.926 20.1435 163.921 20.5415 162.712 20.5415Z" fill="#602B7A"/>
<path fill-rule="evenodd" clip-rule="evenodd" d="M0 0H180V32.61H26.792L18.27 41L9.746 32.61H0V0ZM23.455 22.925L21.823 19.191H14.496L12.892 22.925H9.558L16.566 5.33H19.752L26.762 22.925H23.455ZM59.99 23.269C58.034 23.269 56.371 22.599 55.002 21.257C53.632 19.915 52.948 18.264 52.948 16.305C52.948 14.345 53.633 12.695 55.002 11.354C56.372 10.012 58.034 9.341 59.99 9.341C61.964 9.341 63.627 10.011 64.978 11.354C66.348 12.695 67.032 14.346 67.032 16.305C67.032 18.265 66.347 19.915 64.978 21.256C63.627 22.598 61.964 23.269 59.99 23.269ZM39.97 22.925V9.685H29.756V17.232C29.756 18.432 29.551 19.271 29.142 19.747C28.733 20.224 28.12 20.392 27.302 20.25V22.925C29.009 23.084 30.325 22.722 31.25 21.839C32.174 20.956 32.637 19.465 32.637 17.364V12.44H37.091V22.926H39.971L39.97 22.925ZM52.264 12.439V9.685H43.328V22.925H46.208V12.439H52.264ZM81.244 11.379C79.945 10.021 78.38 9.341 76.549 9.341C74.521 9.341 72.965 10.091 71.881 11.591V9.686H69V27.28H71.88V21.045C72.965 22.527 74.521 23.269 76.549 23.269C78.38 23.269 79.945 22.599 81.243 21.257C82.541 19.915 83.19 18.264 83.19 16.305C83.19 14.363 82.541 12.722 81.243 11.38L81.244 11.379ZM94.82 9.686H97.034V22.926H94.207V14.506L87.378 22.926H85.164V9.685H87.992V18.079L94.82 9.685V9.686ZM110.566 12.44V9.685H98.963V12.439H103.338V22.925H106.218V12.439H110.566V12.44ZM126.119 9.686V22.926H123.318V14.214L119.477 20.278H119.131L115.316 14.241V22.926H112.515V9.685H115.45L119.317 15.802L123.185 9.685H126.119V9.686ZM141.317 9.686H139.103L132.274 18.08V9.685H129.447V22.925H131.661L138.489 14.505V22.925H141.317V9.685V9.686ZM156.131 22.926H152.69L147.222 16.809V22.926H144.341V9.685H147.222V15.537L152.396 9.685H155.917L150.049 16.173L156.131 22.925V22.926ZM169.807 9.686H166.926V11.566C165.841 10.084 164.285 9.342 162.258 9.342C160.427 9.342 158.862 10.012 157.564 11.355C156.266 12.696 155.616 14.347 155.616 16.306C155.616 18.248 156.266 19.898 157.564 21.257C158.862 22.599 160.427 23.27 162.258 23.27C164.285 23.27 165.841 22.52 166.926 21.02V22.926H169.807V9.685V9.686Z" fill="#602B7A"/>
</g>
<defs>
<clipPath id="clip0_170_4755">
<rect width="180" height="41" fill="white"/>
</clipPath>
</defs>
</svg>
