<svg width="129" height="29" viewBox="0 0 129 29" fill="none" xmlns="http://www.w3.org/2000/svg">
<g clip-path="url(#clip0_170_4751)">
<path d="M18.6918 24.0636H14.9846L19.4332 28.5123C24.8929 28.1079 29.2742 23.5244 29.2742 17.9299V14.2227H24.7581V17.9299C24.8255 21.3675 22.062 24.0636 18.6918 24.0636Z" fill="#5082E6"/>
<path d="M5.21062 17.9972V14.29L0.761963 18.7386C1.16639 24.2657 5.74985 28.5796 11.3444 28.5796H15.0516V24.0635H11.3444C7.97418 24.0635 5.21062 21.3674 5.21062 17.9972Z" fill="#5AD2FF"/>
<path d="M11.3444 4.51606H15.0516L10.6029 0C5.07581 0.404423 0.761963 4.98789 0.761963 10.5824V14.2896H5.27802V10.5824C5.27802 7.21222 7.97418 4.51606 11.3444 4.51606Z" fill="#E62D32"/>
<path d="M24.8245 10.5824V14.2896L29.2732 9.84097C28.9362 4.31385 24.3527 0 18.7582 0H15.051V4.51606H18.7582C22.1284 4.51606 24.8245 7.21222 24.8245 10.5824Z" fill="#FABE00"/>
<path d="M60.0772 20.5579V24.4673H44.7092V4.04395H59.7402V8.02078H49.1578V12.1324H57.5159V16.0418H49.1578V20.5579H60.0772Z" fill="#233255"/>
<path d="M64.7288 24.5347V4.04395H69.11V20.5579H78.614V24.4673H64.7288V24.5347Z" fill="#233255"/>
<path d="M100.655 4.04395H104.565V24.5347H100.183V10.8517L93.5779 19.2098L87.0396 10.8517V24.4673H82.6584V4.04395H86.6352L93.6452 12.9412L100.655 4.04395Z" fill="#233255"/>
<path d="M114.472 19.6816L112.72 24.5347H108.069L116.09 4.04395H120.741L128.762 24.5347H124.111L122.358 19.6816H114.472ZM118.381 9.16665L115.887 15.907H120.875L118.381 9.16665Z" fill="#233255"/>
</g>
<defs>
<clipPath id="clip0_170_4751">
<rect width="128" height="29" fill="white" transform="translate(0.761963)"/>
</clipPath>
</defs>
</svg>
