<svg width="139" height="49" viewBox="0 0 139 49" fill="none" xmlns="http://www.w3.org/2000/svg">
<g clip-path="url(#clip0_148_8513)">
<path d="M26.3855 21.9276V30.8088C26.3855 33.0751 27.488 34.1776 29.7542 34.1776H30.7342C33.0005 34.1776 34.103 33.0751 34.103 30.8088V26.4601H39.3092V30.6251C39.3092 36.3213 36.4305 39.2613 30.673 39.2613H29.5705C23.8742 39.2613 20.9342 36.3826 20.9342 31.2988V9.49384C20.9342 3.12384 23.813 0.183838 29.5705 0.183838H30.673C36.3692 0.183838 39.3092 3.06259 39.3092 8.82009V21.8663H26.3855V21.9276ZM26.3855 16.7213H34.0417V8.63634C34.0417 6.37009 32.9392 5.26759 30.673 5.26759H29.8155C27.5492 5.26759 26.4467 6.37009 26.4467 8.63634V16.7213H26.3855Z" fill="#464547"/>
<path d="M42.8621 0.674111H48.2521V3.12411C49.5383 1.77661 51.7433 0.245361 54.8058 0.245361C59.3996 0.245361 61.6658 3.30786 61.6658 7.77911V31.6666C61.6658 36.1991 59.3996 39.2004 54.8058 39.2004C51.6821 39.2004 49.5383 37.7304 48.2521 36.4441V48.7554H42.8621V0.674111ZM48.2521 32.1566C49.7221 33.4429 51.4371 34.1166 53.2133 34.1166C55.1733 34.1166 56.3371 33.1979 56.3371 30.9929V8.45286C56.3371 6.24786 55.2346 5.32911 53.2133 5.32911C51.4371 5.32911 49.7221 6.06411 48.2521 7.28911V32.1566Z" fill="#464547"/>
<path d="M64.9117 25.5413C64.9117 20.8251 66.443 18.9263 70.5467 17.5176L77.7742 15.0676V8.63634C77.7742 6.37009 76.6717 5.14509 74.4055 5.14509H73.548C71.2817 5.14509 70.1792 6.37009 70.1792 8.63634V14.0263H64.973V8.82009C64.973 3.12384 67.8517 0.183838 73.6092 0.183838H74.6505C80.3467 0.183838 83.2867 3.06259 83.2867 8.82009V38.7713H77.8967V36.3826C76.4267 37.7913 74.4055 39.2001 71.343 39.2001C67.0555 39.2001 65.0342 36.7501 65.0342 32.4626V25.5413H64.9117ZM77.7742 32.3401V19.7838L72.8742 21.6213C70.9142 22.4176 70.2405 23.3976 70.2405 25.6026V31.4213C70.2405 33.2588 71.1592 34.1776 72.8742 34.1776C74.528 34.1163 75.998 33.5651 77.7742 32.3401Z" fill="#464547"/>
<path d="M104.847 38.7716H99.4567V8.08536C99.4567 6.18661 98.538 5.32911 96.8842 5.32911C95.4142 5.32911 93.8217 5.88036 91.923 7.22786V38.7716H86.533V0.674111H91.923V3.12411C93.4542 1.65411 95.5367 0.245361 98.4767 0.245361C101.233 0.245361 103.07 1.34786 104.05 3.36911C105.949 1.71536 108.215 0.245361 111.339 0.245361C115.504 0.245361 117.648 2.81786 117.648 6.98286V38.8329H112.258V8.08536C112.258 6.18661 111.339 5.32911 109.685 5.32911C108.215 5.32911 106.623 5.88036 104.724 7.22786V38.7716H104.847Z" fill="#464547"/>
<path d="M14.1355 4.16504V11.2088L5.13175 19.7838L14.1355 28.2363V35.4025L0.354248 22.4175V17.2725L14.1355 4.16504Z" fill="#00B5D1"/>
<path d="M138.289 17.2728V22.4178L124.508 35.4028V28.2365L133.511 19.784L124.508 11.1478V4.16528L138.289 17.2728Z" fill="#00B5D1"/>
</g>
<defs>
<clipPath id="clip0_148_8513">
<rect width="138.425" height="49" fill="white" transform="translate(0.109253)"/>
</clipPath>
</defs>
</svg>
