<svg width="178" height="51" viewBox="0 0 178 51" fill="none" xmlns="http://www.w3.org/2000/svg">
<g clip-path="url(#clip0_170_4758)">
<path fill-rule="evenodd" clip-rule="evenodd" d="M5.5 27.058V15.604H8.665V27.058H14.165V0.5H8.665V10.785H5.501V0.5H0V27.058H5.5ZM21.979 23.162H25.153L25.689 27.058H30.426L26.624 4.927H20.538L16.736 27.057H21.504L21.979 23.162ZM23.681 8.642L24.647 19.116H22.454L23.62 8.642H23.681ZM38.859 27.058L40.806 10.156H40.866L42.814 27.058H48.594L52.044 4.927H47.306L45.512 22.233H45.451L43.41 4.927H38.259L36.282 22.203H36.222L34.367 4.927H29.63L33.08 27.057H38.859V27.058ZM54.251 4.927V27.057H58.835V16.136H58.897L62.515 27.059H67.344L63.358 15.76L67.252 4.926H62.422L58.897 15.4H58.836V4.927H54.252H54.251ZM74.182 4.927H69.598V27.057H74.182V4.928V4.927ZM87.444 20.526L83.55 4.926H77.742V27.058H82.08V11.594H82.142L86.095 27.058H91.844V4.927H87.505V20.526H87.444ZM100.859 13.499V17.515H102.209V22.223C102.242 22.564 102.131 22.904 101.902 23.164C101.597 23.35 101.247 23.4484 100.89 23.4484C100.533 23.4484 100.183 23.35 99.878 23.164C99.648 22.904 99.538 22.564 99.571 22.221V9.719C99.5534 9.55154 99.5716 9.38225 99.6246 9.22241C99.6775 9.06256 99.7639 8.91583 99.878 8.792C100.502 8.432 101.278 8.432 101.902 8.792C102.133 9.045 102.244 9.382 102.208 9.721V11.07H106.792V9.689C106.792 7.831 106.335 6.502 105.42 5.703C104.505 4.903 102.949 4.504 100.752 4.504C99.8484 4.48541 98.9462 4.58628 98.069 4.804C97.4174 4.96517 96.8132 5.27839 96.306 5.718C95.838 6.15782 95.4947 6.71363 95.311 7.329C95.0821 8.09424 94.9734 8.8904 94.989 9.689V23.132C94.9522 23.7241 95.041 24.3173 95.2497 24.8726C95.4584 25.4279 95.7823 25.9328 96.2 26.354C97.0874 27.1431 98.249 27.5524 99.435 27.494C100.197 27.537 100.955 27.373 101.627 27.019C102.24 26.5983 102.757 26.0527 103.145 25.418L103.805 27.058H106.794V13.498H100.859V13.499ZM123.779 5.356C124.117 5.338 124.453 5.409 124.754 5.561C125.016 5.741 125.194 6.014 125.251 6.322C125.368 6.895 125.417 7.478 125.398 8.062C125.418 8.656 125.368 9.252 125.251 9.836C125.197 10.14 125.025 10.4105 124.773 10.589C124.465 10.739 124.122 10.807 123.778 10.786H122.38V5.355H123.778L123.779 5.356ZM125.067 27.058C127.152 27.058 128.669 26.611 129.619 25.718C130.569 24.825 131.045 23.468 131.045 21.646V17.636C131.112 16.5339 130.822 15.4396 130.217 14.516C129.892 14.1232 129.492 13.7992 129.041 13.563C128.589 13.3269 128.095 13.1834 127.587 13.141V13.069C128.651 12.8047 129.573 12.1417 130.162 11.217C130.669 10.301 130.922 9.272 130.898 8.232V5.912C130.898 4.09 130.423 2.732 129.472 1.84C128.522 0.946 126.998 0.5 124.901 0.5H116.881V27.058H125.067ZM123.671 15.604C124.086 15.578 124.502 15.648 124.885 15.809C125.187 16.018 125.379 16.347 125.408 16.708C125.519 17.437 125.565 18.174 125.546 18.911C125.553 19.631 125.497 20.349 125.381 21.059C125.348 21.429 125.166 21.772 124.875 22.012C124.501 22.19 124.085 22.267 123.671 22.236H122.383V15.604H123.671ZM137.913 17.513H139.078C140.06 17.513 140.55 17.883 140.55 18.622V26.174C140.57 26.488 140.67 26.792 140.841 27.058H145.455C145.34 26.9415 145.258 26.7966 145.218 26.638C145.175 26.4337 145.152 26.2257 145.148 26.017C145.138 25.752 145.133 25.29 145.134 24.63V19.85C145.134 18.442 144.914 17.395 144.474 16.711C144.237 16.3612 143.926 16.0679 143.563 15.8518C143.2 15.6358 142.794 15.5024 142.374 15.461V15.401C142.778 15.3682 143.171 15.2472 143.523 15.0465C143.875 14.8457 144.18 14.5701 144.414 14.239C144.818 13.5963 145.026 12.8499 145.012 12.091V9.437C145.012 7.728 144.565 6.55 143.672 5.9C142.777 5.251 141.287 4.927 139.202 4.929H133.327V27.058H137.911V17.513H137.913ZM139.078 8.972C139.496 8.913 139.913 9.082 140.167 9.412C140.39 9.991 140.479 10.61 140.428 11.227C140.485 11.8533 140.388 12.484 140.145 13.064C140.019 13.2211 139.855 13.3433 139.668 13.4191C139.482 13.4949 139.279 13.5217 139.079 13.497H137.914V8.972H139.079H139.078ZM151.846 8.792C152.471 8.432 153.246 8.432 153.87 8.792C154.102 9.045 154.214 9.382 154.178 9.719V22.219C154.212 22.561 154.101 22.902 153.871 23.162C153.253 23.542 152.467 23.542 151.848 23.162C151.618 22.902 151.507 22.562 151.541 22.219V9.719C151.523 9.55169 151.541 9.38248 151.594 9.22265C151.646 9.06281 151.732 8.916 151.846 8.792ZM147.316 24.818C147.513 25.438 147.882 25.993 148.382 26.421C148.917 26.8354 149.542 27.1177 150.206 27.245C151.078 27.422 151.967 27.505 152.858 27.492C154.953 27.492 156.461 27.122 157.381 26.383C158.301 25.644 158.761 24.276 158.761 22.278V9.69C158.761 7.703 158.303 6.342 157.388 5.607C156.474 4.873 154.964 4.507 152.858 4.507C151.72 4.47144 150.584 4.62037 149.493 4.948C148.678 5.21118 147.994 5.77705 147.584 6.529C147.116 7.51485 146.901 8.60128 146.956 9.691V22.277C146.934 23.137 147.056 23.995 147.316 24.817V24.818ZM172.006 9.841C172.025 9.00004 171.904 8.16179 171.646 7.361C171.439 6.72871 171.075 6.15927 170.588 5.706C170.075 5.26166 169.462 4.94806 168.802 4.792C167.959 4.58864 167.093 4.49288 166.226 4.507C164.049 4.507 162.521 4.941 161.643 5.81C160.763 6.68 160.324 8.129 160.324 10.158C160.259 11.5471 160.588 12.9262 161.274 14.136C162.035 15.2736 162.993 16.2659 164.104 17.066C165.044 17.7486 165.933 18.4996 166.763 19.313C167.319 19.96 167.599 20.792 167.545 21.635C167.585 22.1231 167.476 22.6117 167.231 23.036C166.991 23.336 166.614 23.496 166.227 23.463C165.837 23.495 165.457 23.328 165.222 23.021C164.981 22.6007 164.872 22.1179 164.909 21.635V20.09H160.325V22.143C160.302 23.007 160.411 23.8694 160.646 24.701C160.831 25.328 161.186 25.895 161.674 26.341C162.19 26.7841 162.81 27.0908 163.475 27.233C164.369 27.424 165.282 27.513 166.196 27.495C167.159 27.517 168.121 27.414 169.056 27.188C169.735 27.0235 170.356 26.6795 170.856 26.192C171.339 25.672 171.675 25.037 171.83 24.351C172.05 23.397 172.15 22.421 172.13 21.444C172.194 20.0503 171.859 18.6673 171.163 17.458C170.555 16.4891 169.782 15.6345 168.879 14.933C167.976 14.2386 167.094 13.5166 166.235 12.768C165.852 12.4895 165.535 12.1306 165.306 11.7165C165.077 11.3024 164.942 10.8431 164.909 10.371C164.867 9.87643 164.973 9.38047 165.215 8.947C165.337 8.79971 165.492 8.68442 165.669 8.61121C165.845 8.538 166.037 8.50909 166.227 8.527C167.106 8.527 167.545 9.142 167.545 10.369V11.597H172.006V9.84V9.841ZM173.922 27.058H178V23.042H173.922V27.058ZM2.75 47.966C3.08354 47.9884 3.41821 47.9445 3.7347 47.8369C4.05119 47.7293 4.34324 47.5601 4.594 47.339C4.82347 47.0853 4.99883 46.7875 5.10938 46.4637C5.21994 46.14 5.26336 45.7971 5.237 45.456C5.25066 44.9648 5.12591 44.4797 4.877 44.056C4.76251 43.8662 4.60945 43.7025 4.42772 43.5755C4.24599 43.4486 4.03963 43.3612 3.822 43.319V43.299C4.171 43.164 4.465 42.921 4.662 42.605C4.867 42.267 4.971 41.879 4.961 41.485C4.98831 41.1548 4.94381 40.8226 4.83057 40.5112C4.71734 40.1998 4.53804 39.9166 4.305 39.681C3.77259 39.2596 3.10244 39.0515 2.425 39.097H0V47.966H2.75ZM2.862 43.83C3.03189 43.8183 3.20184 43.8521 3.35427 43.9281C3.50669 44.004 3.63606 44.1193 3.729 44.262C3.933 44.629 4.029 45.045 4.006 45.462C4.034 45.875 3.921 46.284 3.686 46.626C3.57271 46.7618 3.42901 46.8689 3.26656 46.9388C3.10411 47.0086 2.92748 47.0392 2.751 47.028H1.237V43.83H2.862ZM1.237 40.047H2.425C2.60446 40.0328 2.78487 40.0573 2.95409 40.1187C3.12331 40.1801 3.2774 40.277 3.406 40.403C3.647 40.72 3.762 41.113 3.729 41.509C3.755 41.883 3.651 42.253 3.434 42.56C3.33066 42.6821 3.20134 42.7796 3.05549 42.8454C2.90964 42.9111 2.75095 42.9434 2.591 42.94H1.237V40.047ZM10.232 47.881C10.542 47.76 10.818 47.565 11.035 47.314L10.685 46.523C10.5172 46.7215 10.3079 46.8809 10.072 46.99C9.772 47.112 9.45 47.168 9.127 47.155C8.93096 47.1638 8.73638 47.1174 8.56542 47.021C8.39446 46.9247 8.25399 46.7823 8.16 46.61C7.92904 46.1724 7.8186 45.6813 7.84 45.187V44.927H11.207V44.075C11.2485 43.3414 11.0471 42.6146 10.634 42.007C10.4359 41.7548 10.1795 41.5545 9.88684 41.4234C9.5942 41.2922 9.27407 41.2341 8.954 41.254C8.62536 41.2467 8.29974 41.3181 8.00434 41.4623C7.70895 41.6065 7.45235 41.8194 7.256 42.083C6.79944 42.7019 6.56895 43.4587 6.603 44.227V45.189C6.56769 45.9446 6.80117 46.6882 7.262 47.288C7.695 47.82 8.358 48.117 9.047 48.088C9.452 48.098 9.855 48.027 10.232 47.881ZM9.734 42.642C9.919 42.997 10.007 43.394 9.989 43.794V44.044H7.841C7.841 43.582 7.951 43.127 8.161 42.715C8.23131 42.5633 8.34328 42.4348 8.48386 42.3443C8.62444 42.2538 8.78783 42.2052 8.955 42.204C9.11287 42.1965 9.26965 42.2337 9.40741 42.3111C9.54517 42.3886 9.65835 42.5032 9.734 42.642ZM14.262 41.954C13.9943 42.0748 13.7486 42.2394 13.535 42.441L13.523 42.429C13.586 41.937 13.773 41.469 14.068 41.068C14.307 40.762 14.648 40.551 15.031 40.474C15.5539 40.41 16.0538 40.2217 16.489 39.925C16.6677 39.737 16.8025 39.5116 16.8834 39.2652C16.9643 39.0187 16.9895 38.7574 16.957 38.5H15.962C15.9708 38.6174 15.9516 38.7352 15.9058 38.8438C15.8601 38.9523 15.7892 39.0483 15.699 39.124C15.448 39.294 15.164 39.41 14.865 39.468C14.4813 39.5638 14.1238 39.7441 13.8188 39.9959C13.5137 40.2476 13.2688 40.5644 13.102 40.923C12.6204 41.9556 12.3976 43.09 12.453 44.228V44.91C12.412 45.73 12.638 46.542 13.099 47.225C13.539 47.774 14.208 48.095 14.915 48.096C15.2636 48.0973 15.6081 48.0206 15.9232 47.8714C16.2383 47.7222 16.516 47.5045 16.736 47.234C17.196 46.559 17.424 45.754 17.382 44.941V44.776C17.4196 44.0063 17.2104 43.2446 16.785 42.602C16.5961 42.3353 16.3433 42.1203 16.0498 41.9765C15.7563 41.8327 15.4315 41.7648 15.105 41.779C14.8147 41.7765 14.5273 41.8362 14.262 41.954ZM15.849 43.291C16.069 43.754 16.172 44.263 16.151 44.774V44.939C16.173 45.489 16.07 46.038 15.849 46.544C15.689 46.914 15.322 47.154 14.915 47.156C14.508 47.156 14.14 46.916 13.979 46.547C13.7624 46.0396 13.6616 45.4903 13.684 44.939V44.774C13.664 44.264 13.764 43.758 13.979 43.294C14.0597 43.1171 14.1912 42.9682 14.3569 42.8663C14.5225 42.7644 14.7147 42.7142 14.909 42.722C15.309 42.708 15.679 42.932 15.849 43.291ZM21.174 43.666H18.548V44.601H21.174V43.666ZM23.951 45.804L23.933 45.797V41.375H22.702V47.966H23.932L25.963 43.544L25.982 43.548V47.966H27.218V41.375H25.982L23.951 45.804ZM33.479 41.375H32.242V44.214H30.205V41.375H28.974V47.966H30.204V45.152H32.242V47.966H33.478V41.375H33.479ZM39.456 41.375H34.772V42.319H36.483V47.966H37.72V42.319H39.453V41.375H39.456ZM43.657 47.881C43.967 47.76 44.244 47.565 44.46 47.314L44.11 46.523C43.9423 46.7216 43.733 46.881 43.497 46.99C43.197 47.112 42.875 47.168 42.552 47.155C42.3561 47.1636 42.1618 47.1171 41.991 47.0208C41.8202 46.9244 41.6799 46.7821 41.586 46.61C41.3547 46.1726 41.2443 45.6813 41.266 45.187V44.927H44.636V44.075C44.6774 43.3414 44.476 42.6147 44.063 42.007C43.663 41.497 43.033 41.214 42.383 41.254C42.0542 41.2465 41.7284 41.3179 41.4328 41.4621C41.1372 41.6063 40.8805 41.8192 40.684 42.083C40.2279 42.7021 39.9977 43.4588 40.032 44.227V45.189C39.9964 45.9444 40.2295 46.6881 40.69 47.288C41.124 47.82 41.786 48.117 42.476 48.088C42.8794 48.0965 43.2806 48.0262 43.657 47.881ZM43.159 42.642C43.344 42.997 43.432 43.394 43.414 43.794V44.044H41.266C41.266 43.582 41.376 43.127 41.586 42.715C41.6563 42.5633 41.7683 42.4348 41.9089 42.3443C42.0494 42.2538 42.2128 42.2052 42.38 42.204C42.5379 42.1965 42.6946 42.2337 42.8324 42.3111C42.9702 42.3886 43.0833 42.5032 43.159 42.642ZM49.607 41.375H46.068V47.966H47.298V42.331H49.607V41.375ZM55.473 44.409C55.5142 43.605 55.3277 42.8058 54.935 42.103C54.7773 41.8351 54.5503 41.6148 54.2779 41.4652C54.0054 41.3156 53.6976 41.2423 53.387 41.253C53.0936 41.2449 52.8038 41.3187 52.55 41.466C52.3042 41.6202 52.0994 41.8315 51.953 42.082L51.94 42.076L51.873 41.375H50.765V50.5H51.996V47.387L52.014 47.381C52.161 47.601 52.359 47.781 52.592 47.908C52.839 48.033 53.114 48.095 53.392 48.088C53.6934 48.1019 53.9933 48.0384 54.2632 47.9036C54.5331 47.7688 54.764 47.5672 54.934 47.318C55.3242 46.6896 55.512 45.9566 55.472 45.218V44.408H55.473V44.409ZM54.243 45.219C54.265 45.706 54.167 46.191 53.956 46.632C53.8726 46.7973 53.7429 46.9348 53.5828 47.0279C53.4226 47.1209 53.2389 47.1654 53.054 47.156C52.822 47.166 52.593 47.096 52.405 46.961C52.2208 46.812 52.0796 46.6167 51.996 46.395V43.05C52.083 42.816 52.224 42.605 52.408 42.435C52.5847 42.2855 52.8107 42.2071 53.042 42.215C53.442 42.208 53.804 42.448 53.95 42.815C54.165 43.319 54.265 43.863 54.242 44.409V45.219H54.243ZM61.425 47.966C61.2964 47.4979 61.2321 47.0145 61.234 46.529V43.47C61.2554 43.1695 61.2151 42.8677 61.1157 42.5833C61.0163 42.2989 60.8599 42.0378 60.656 41.816C60.4518 41.6246 60.2113 41.4761 59.9486 41.3794C59.686 41.2827 59.4066 41.2397 59.127 41.253C58.8328 41.2394 58.5387 41.2843 58.262 41.3853C57.9853 41.4862 57.7314 41.6411 57.515 41.841C57.122 42.201 56.901 42.709 56.905 43.238L58.142 43.245C58.1297 42.9682 58.2146 42.6958 58.382 42.475C58.4621 42.3772 58.5639 42.2995 58.6794 42.2481C58.7948 42.1967 58.9207 42.173 59.047 42.179C59.1828 42.1715 59.3184 42.1979 59.4415 42.2559C59.5645 42.3139 59.6712 42.4015 59.752 42.511C59.931 42.794 60.016 43.125 59.995 43.458V44.134H59.14C58.5132 44.092 57.8926 44.2805 57.395 44.664C56.978 45.047 56.755 45.594 56.789 46.156C56.759 46.666 56.917 47.169 57.235 47.572C57.557 47.926 58.025 48.115 58.505 48.087C58.812 48.089 59.112 47.996 59.361 47.819C59.62 47.635 59.838 47.401 60.001 47.131L60.014 47.136C60.026 47.271 60.047 47.404 60.075 47.536C60.103 47.672 60.139 47.815 60.18 47.965H61.425V47.966ZM58.22 46.87C58.0785 46.6575 58.0095 46.4049 58.023 46.15C58.0123 45.8303 58.1123 45.5166 58.306 45.262C58.4041 45.1413 58.5296 45.0457 58.672 44.9831C58.8144 44.9205 58.9697 44.8927 59.125 44.902H60V46.279C59.8983 46.5243 59.7325 46.7377 59.52 46.897C59.3115 47.0557 59.056 47.1402 58.794 47.137C58.6835 47.1437 58.5731 47.1228 58.4728 47.0762C58.3724 47.0296 58.2852 46.9587 58.219 46.87H58.221H58.22ZM67.071 41.375H62.385V42.319H64.095V47.966H65.332V42.319H67.065V41.375H67.071ZM67.859 45.097C67.821 45.871 68.049 46.636 68.505 47.265C68.7324 47.5237 69.0124 47.7309 69.3262 47.8729C69.6401 48.0148 69.9806 48.0881 70.325 48.088C71.023 48.088 71.687 47.789 72.145 47.268C72.6 46.6385 72.8272 45.8728 72.789 45.097V44.257C72.8252 43.4807 72.5971 42.715 72.142 42.085C71.9167 41.8237 71.6376 41.6141 71.3238 41.4705C71.0101 41.3269 70.669 41.2527 70.324 41.253C69.624 41.253 68.959 41.557 68.505 42.085C68.0505 42.7148 67.8228 43.4801 67.859 44.256V45.096V45.097ZM69.096 44.257C69.0753 43.7463 69.1753 43.2378 69.388 42.773C69.4688 42.5955 69.6008 42.4462 69.767 42.3443C69.9333 42.2424 70.1262 42.1925 70.321 42.201C70.721 42.188 71.09 42.413 71.256 42.773C71.476 43.236 71.579 43.745 71.558 44.256V45.096C71.579 45.6094 71.4765 46.1204 71.259 46.586C71.171 46.7577 71.0373 46.9017 70.8727 47.0023C70.7081 47.1029 70.5189 47.1561 70.326 47.156C69.932 47.156 69.57 46.938 69.391 46.59C69.1754 46.1229 69.0742 45.611 69.096 45.097V44.257ZM78.993 44.409C79.0345 43.605 78.848 42.8056 78.455 42.103C78.2975 41.835 78.0705 41.6145 77.798 41.4649C77.5255 41.3153 77.2177 41.242 76.907 41.253C76.6137 41.2451 76.3239 41.3188 76.07 41.466C75.824 41.621 75.62 41.832 75.473 42.082L75.461 42.076L75.393 41.375H74.285V50.5H75.514V47.387L75.532 47.381C75.679 47.601 75.877 47.781 76.11 47.908C76.357 48.033 76.632 48.095 76.91 48.088C77.2112 48.1018 77.511 48.0383 77.7807 47.9035C78.0504 47.7687 78.2812 47.5672 78.451 47.318C78.842 46.688 79.031 45.956 78.991 45.218V44.408H78.993V44.409ZM77.763 45.219C77.7853 45.7065 77.6867 46.1919 77.476 46.632C77.3926 46.7973 77.2629 46.9348 77.1028 47.0279C76.9426 47.1209 76.7589 47.1654 76.574 47.156C76.342 47.166 76.114 47.096 75.925 46.961C75.7408 46.812 75.5996 46.6167 75.516 46.395V43.05C75.603 42.8152 75.7445 42.6044 75.929 42.435C76.1054 42.2856 76.331 42.2072 76.562 42.215C76.962 42.208 77.324 42.448 77.47 42.815C77.685 43.319 77.785 43.863 77.762 44.409V45.219H77.763Z" fill="#333333"/>
</g>
<defs>
<clipPath id="clip0_170_4758">
<rect width="178" height="50" fill="white" transform="translate(0 0.5)"/>
</clipPath>
</defs>
</svg>
