<svg width="49" height="49" viewBox="0 0 49 49" fill="none" xmlns="http://www.w3.org/2000/svg">
<g clip-path="url(#clip0_148_8480)">
<path d="M24.5 49C38.0311 49 49 38.0311 49 24.5C49 10.9689 38.0311 0 24.5 0C10.9689 0 0 10.9689 0 24.5C0 38.0311 10.9689 49 24.5 49Z" fill="#D6001C"/>
<path d="M13.9345 13.4434V21.7774C15.2034 20.2646 16.7244 19.503 18.4884 19.503C19.397 19.503 20.2106 19.6766 20.9405 20.0206C21.6724 20.3626 22.2196 20.8015 22.5891 21.3344C22.9607 21.8724 23.2118 22.4614 23.3476 23.1107C23.4823 23.7568 23.5497 24.7624 23.5497 26.1262V35.037H19.6073V27.0113C19.6073 25.4188 19.5358 24.4102 19.3857 23.9814C19.2451 23.5614 18.9662 23.2015 18.5946 22.9606C18.2148 22.7044 17.7422 22.5778 17.1715 22.5778C16.5182 22.5778 15.9323 22.7411 15.4229 23.0657C14.9022 23.3924 14.5286 23.8804 14.2918 24.5327C14.0509 25.186 13.9304 26.1507 13.9345 27.4278L13.9304 35.037H9.99304V13.4434H13.9355M29.4583 13.4434V21.7774C30.7282 20.2646 32.2482 19.503 34.0112 19.503C34.9167 19.503 35.7364 19.6766 36.4673 20.0206C37.1962 20.3626 37.7434 20.8015 38.1109 21.3344C38.4817 21.8688 38.7398 22.4732 38.8694 23.1107C39.0051 23.7568 39.0725 24.7624 39.0725 26.1262V35.037H35.1341V27.0113C35.1341 25.4188 35.0596 24.4102 34.9095 23.9814C34.7689 23.5608 34.4891 23.2008 34.1164 22.9606C33.7407 22.7044 33.264 22.5778 32.6933 22.5778C32.041 22.5778 31.455 22.7411 30.9446 23.0657C30.4311 23.3924 30.0555 23.8804 29.8156 24.5327C29.5788 25.186 29.4583 26.1507 29.4583 27.4278V35.037H25.5209V13.4434H29.4583Z" fill="#FEFEFE"/>
</g>
<defs>
<clipPath id="clip0_148_8480">
<rect width="49" height="49" fill="white"/>
</clipPath>
</defs>
</svg>
