<svg width="20" height="20" viewBox="0 0 20 20" fill="none" xmlns="http://www.w3.org/2000/svg">
<path fill-rule="evenodd" clip-rule="evenodd" d="M10.0007 4.15039C8.41809 4.15039 6.98327 4.76918 5.92485 5.7769L4.89053 4.69054C6.21758 3.42706 8.01907 2.65039 10.0007 2.65039C13.1563 2.65039 15.8532 4.61805 16.9121 7.39161L18.0048 4.21815C18.0947 3.95705 18.3792 3.81827 18.6403 3.90818L19.1131 4.07095C19.3742 4.16086 19.513 4.4454 19.4231 4.7065L17.486 10.3321C17.4411 10.4626 17.2988 10.532 17.1682 10.4871L11.5426 8.55003C11.2815 8.46013 11.1428 8.17559 11.2327 7.91449L11.3955 7.44174C11.4854 7.18064 11.7699 7.04186 12.031 7.13176L15.4718 8.31654L15.6211 8.24371C14.8707 5.87362 12.6402 4.15039 10.0007 4.15039ZM1.48559 15.5064L3.0357 12.4641C4.0548 15.3139 6.7904 17.3504 10.0007 17.3504C11.9823 17.3504 13.7838 16.5737 15.1109 15.3102L14.0765 14.2239C13.0181 15.2316 11.5833 15.8504 10.0007 15.8504C7.39591 15.8504 5.18948 14.1722 4.41065 11.8503L4.56429 11.8004L7.80674 13.4525C8.05278 13.5779 8.35387 13.48 8.47924 13.234L8.70623 12.7885C8.8316 12.5424 8.73377 12.2414 8.48773 12.116L3.18646 9.41485C3.06344 9.35217 2.9129 9.40109 2.85021 9.52411L0.149085 14.8254C0.0237195 15.0714 0.12155 15.3725 0.367595 15.4979L0.813095 15.7249C1.05914 15.8502 1.36023 15.7524 1.48559 15.5064Z" fill="#788188"/>
</svg>
