<svg width="203" height="33" viewBox="0 0 203 33" fill="none" xmlns="http://www.w3.org/2000/svg">
<g clip-path="url(#clip0_148_8488)">
<path d="M142.296 10.223H135.877V26.071H132.478V10.223H126.169V7.10571H142.299L142.296 10.223Z" fill="#1890FF"/>
<path d="M157.846 17.8702H149.091V22.9647H159.152V26.0782H145.692V7.10547H158.852V10.2227H149.098V14.7454H157.854L157.846 17.8702Z" fill="#1890FF"/>
<path d="M178.731 23.9841C178.446 24.3163 178.112 24.6036 177.74 24.8363C177.268 25.1372 176.765 25.3877 176.24 25.5838C175.609 25.8251 174.959 26.0114 174.297 26.1407C173.539 26.2899 172.769 26.3625 171.997 26.3575C170.556 26.377 169.121 26.1481 167.758 25.681C166.551 25.2669 165.444 24.6076 164.506 23.7449C163.594 22.8818 162.88 21.8324 162.413 20.6687C161.895 19.3602 161.64 17.9634 161.662 16.5572C161.651 15.2114 161.906 13.8765 162.413 12.6289C162.882 11.4629 163.595 10.4102 164.506 9.54145C165.447 8.65148 166.561 7.96438 167.781 7.52307C169.153 7.02499 170.604 6.78052 172.065 6.80169C173.373 6.77294 174.678 6.96114 175.925 7.35861C176.782 7.63744 177.599 8.02966 178.352 8.52479V13.2269C178.036 12.7851 177.675 12.3768 177.275 12.0084C176.837 11.6024 176.354 11.2475 175.835 10.9506C175.277 10.6343 174.684 10.3834 174.068 10.203C173.41 10.0112 172.728 9.91553 172.042 9.91896C171.086 9.90626 170.136 10.071 169.24 10.4049C168.447 10.7058 167.725 11.1678 167.12 11.7617C166.529 12.3573 166.074 13.0741 165.789 13.8623C165.47 14.7338 165.312 15.6558 165.324 16.5834C165.317 17.4644 165.461 18.3402 165.747 19.1736C166.013 19.9661 166.449 20.6915 167.024 21.2995C167.599 21.9075 168.3 22.3835 169.079 22.6946C169.994 23.0634 170.972 23.2513 171.96 23.2477C172.734 23.2548 173.507 23.1644 174.259 22.9786C174.921 22.8073 175.56 22.5563 176.161 22.2311C176.709 21.9397 177.213 21.575 177.662 21.1471C178.082 20.7521 178.44 20.2959 178.723 19.7941L178.731 23.9841Z" fill="#1890FF"/>
<path d="M196.609 17.8704H186.185V26.0934H182.786V7.10571H186.185V14.7456H196.609V7.10571H199.986V26.071H196.609V17.8704Z" fill="#1890FF"/>
<path d="M50.3823 14.8316C48.1578 14.3084 46.2558 13.8598 46.2558 12.3162C46.2558 10.2454 48.8105 10.0211 49.9096 10.0211C51.1256 9.97243 52.335 10.2214 53.4321 10.7463L56.4969 8.50363C54.5179 7.30504 52.2516 6.65948 49.9359 6.63477C44.1739 6.63477 42.1219 9.68849 42.1219 12.5442C42.1219 16.6557 45.7119 17.5191 48.8742 18.2741C51.0988 18.8049 53.0194 19.2646 53.0194 20.8307C53.0194 21.6381 52.5393 22.9874 49.3132 22.9874C47.1108 22.9664 44.9662 22.2824 43.161 21.0251L41.7505 24.2246C43.4499 25.544 46.3909 26.3924 49.2794 26.3924C54.0585 26.3924 57.1571 24.0825 57.1571 20.5093C57.1459 16.4202 53.5521 15.5755 50.3823 14.8316Z" fill="#1D1D1D"/>
<path d="M74.6551 16.1992L74.4563 16.1319L74.6401 16.0348C75.3963 15.6412 76.0264 15.044 76.4588 14.3112C76.8912 13.5784 77.1085 12.7394 77.0859 11.8896C77.0859 8.806 74.46 6.96704 70.0748 6.96704H60.9966V26.0594H70.6074C75.3903 26.0594 78.0238 24.2241 78.0238 20.8901C78.0701 19.8454 77.7634 18.8153 77.1526 17.9649C76.5419 17.1144 75.6625 16.4927 74.6551 16.1992ZM65.1306 10.1329H69.5383C72.3143 10.1329 72.9145 11.4075 72.9145 12.4652C72.9145 14.0014 71.7553 14.7976 69.5383 14.7976H65.1306V10.1329ZM65.1306 14.7976H69.5383H65.1306ZM70.2886 22.8636H65.1306V17.9784H70.2886C72.6406 17.9784 73.8336 18.7895 73.8336 20.4229C73.8336 22.0563 72.6744 22.8636 70.2886 22.8636Z" fill="#1D1D1D"/>
<path d="M92.0264 10.132L96.3554 6.95117H81.8716V26.0435H96.3554V22.8627H86.0056V17.9775H94.8361V14.7967H86.0056V10.132H92.0264Z" fill="#1D1D1D"/>
<path d="M116.544 26.0435L112.339 19.8389C114.819 18.7624 116.252 16.6357 116.252 13.7838C116.252 9.57131 113.127 6.95117 108.093 6.95117H100.2V26.0435H104.326V20.635H108.078H108.427L112.099 26.051L116.544 26.0435ZM104.326 10.132H107.991C110.64 10.132 112.099 11.4328 112.099 13.795C112.099 16.1572 110.64 17.458 107.991 17.458H104.326V10.132Z" fill="#1D1D1D"/>
<path d="M32.525 16.4984C32.5262 15.5458 32.4408 14.595 32.2699 13.6577L28.8412 16.1732C28.8412 16.2816 28.8412 16.39 28.8412 16.4984C28.8446 19.2277 27.9305 21.8795 26.2448 24.0307C24.5591 26.1819 22.1989 27.7087 19.5406 28.3674C16.8824 29.0261 14.0794 28.7787 11.5787 27.6648C9.07809 26.5509 7.02386 24.6347 5.7438 22.2217C4.46374 19.8088 4.0316 17.0382 4.51632 14.352C5.00104 11.6658 6.37469 9.21873 8.41814 7.40118C10.4615 5.58364 13.057 4.50034 15.7905 4.32413C18.524 4.14791 21.2379 4.88892 23.4994 6.42894L26.5942 4.1564C23.7844 1.89801 20.2876 0.658417 16.6776 0.641054C13.0676 0.623691 9.55898 1.82959 6.72744 4.06085C3.89591 6.29211 1.90973 9.41617 1.09487 12.9203C0.280018 16.4245 0.684891 20.1005 2.24305 23.3452C3.80121 26.5899 6.42008 29.2104 9.66988 30.7767C12.9196 32.343 16.6073 32.762 20.1276 31.965C23.6479 31.168 26.7917 29.2023 29.043 26.3905C31.2944 23.5787 32.5196 20.0879 32.5175 16.4909L32.525 16.4984Z" fill="#1D1D1D"/>
<path d="M29.2024 6.79907C29.9604 7.77268 30.6012 8.83145 31.1118 9.95372L16.6056 20.6063L10.5435 16.8199V12.2636L16.6056 16.05L29.2024 6.79907Z" fill="#1D1D1D"/>
</g>
<defs>
<clipPath id="clip0_148_8488">
<rect width="202" height="32" fill="white" transform="translate(0.285645 0.5)"/>
</clipPath>
</defs>
</svg>
