<svg width="235" height="53" viewBox="0 0 235 53" fill="none" xmlns="http://www.w3.org/2000/svg">
<g clip-path="url(#clip0_148_8499)">
<path fill-rule="evenodd" clip-rule="evenodd" d="M58.7524 24.79L59.5209 22.3255L56.9769 22.4065C56.7634 22.4065 55.1999 22.3598 53.6863 21.2608C53.8001 21.2701 53.9107 21.2873 54.0292 21.2873C55.588 21.2873 57.0985 20.3458 57.7018 18.9989L58.7961 16.5672C57.4243 16.5859 56.1695 16.4129 56.1695 16.4129C56.1586 16.4129 55.1703 16.2835 54.0276 15.1128C53.2077 14.2757 52.1929 13.8314 51.0939 13.8314C50.6589 13.8331 50.2266 13.902 49.8126 14.0356C49.8703 13.8392 49.9248 13.6381 49.9576 13.4324C50.3052 11.1565 48.8446 9.42309 48.8446 9.42309L46.9319 7.05056L45.7456 9.83774C45.7409 9.84709 45.4416 10.5018 44.907 10.8198C44.7449 9.99985 44.3474 9.07859 43.4994 8.19785C41.8984 6.53926 39.9515 6.28985 38.932 6.28985C38.4597 6.28985 38.1214 6.34285 38.0404 6.35532L35.7317 6.8105C35.8642 6.29453 36.1495 5.39197 36.667 4.58294L37.9421 2.59544L34.7356 2.96176L33.7146 0.788765L31.7365 1.80979L29.908 0L28.0841 1.80824L26.1029 0.788765L25.0834 2.96021L21.8785 2.59388L23.1551 4.5845C23.6742 5.39353 23.9564 6.29141 24.0889 6.80738L21.8863 6.37091L21.8099 6.36C21.5057 6.31208 21.1981 6.28862 20.8902 6.28985C19.8707 6.28985 17.9237 6.53926 16.3275 8.19785C15.4779 9.07703 15.0789 9.99985 14.9168 10.8198C14.3852 10.5034 14.0875 9.86112 14.0875 9.86112L12.8996 7.05524L10.9558 9.44647C10.7189 9.75356 9.54817 11.3841 9.86462 13.4371C9.89891 13.6413 9.95191 13.8408 10.0096 14.0372C9.59671 13.9031 9.16545 13.8342 8.73135 13.833C7.63082 13.833 6.61603 14.2773 5.79453 15.1144C4.65659 16.2804 3.67297 16.4129 3.68076 16.4129C3.68076 16.4129 2.64103 16.5999 1.03076 16.5687L2.12038 19.0005C2.7252 20.3473 4.23726 21.2889 5.79297 21.2889C5.91144 21.2889 6.02212 21.2717 6.13747 21.2624C4.62541 22.3629 3.06347 22.4081 2.87485 22.4081L0.285645 22.3255L1.06973 24.7884C1.46567 26.0604 2.78444 28.1633 5.30973 28.3893C5.03538 29.5428 4.42588 30.8366 3.08841 31.3947L1.15859 32.1897L2.21079 34.026C2.8047 35.0159 4.19985 36.1741 6.18423 36.1741C6.61291 36.1741 7.02756 36.1289 7.42817 36.0447C7.5295 36.4967 7.65732 36.9488 7.80853 37.4009C8.39776 39.1623 7.88959 40.3907 7.88335 40.4047L6.93247 42.4031L9.05714 42.9643C9.08364 42.9736 9.72744 43.1514 10.5302 43.1514C10.895 43.1514 11.2442 43.1124 11.5715 43.0344C11.8178 42.9768 12.0548 42.8988 12.2839 42.8069C12.5598 43.301 12.8934 43.7531 13.2831 44.1568C14.6455 45.5582 16.5785 46.2674 19.0227 46.2674H19.0305L20.7764 46.2441L17.1693 47.7468L19.9081 49.0733C20.9042 49.5597 22.0827 50.1333 23.2861 50.5729L22.9431 51.5098L23.8862 51.9416C23.9704 51.9805 25.788 52.7927 28.8043 52.9657C28.8043 52.9657 29.5323 53 29.9329 53C30.3351 53 31.0553 52.9641 31.0553 52.9641C34.0513 52.7864 35.8533 51.9805 35.9375 51.9416L36.8837 51.5098L36.5392 50.5714C37.7738 50.1193 38.9975 49.5207 39.953 49.0546L42.6404 47.7452L39.0442 46.2441L40.7979 46.2674C43.2453 46.2674 45.1782 45.5566 46.5391 44.1552C46.9272 43.7531 47.2592 43.3026 47.5367 42.8069C48.0931 43.037 48.6899 43.1536 49.2919 43.1498C50.0823 43.1498 50.7323 42.9752 50.7494 42.969L52.885 42.4031L51.9544 40.4406C51.9326 40.3907 51.4244 39.1623 52.0136 37.3977C52.1648 36.9488 52.2911 36.4952 52.394 36.0447C52.7946 36.1289 53.2139 36.1725 53.6457 36.1741C56.1741 36.1741 57.3869 34.3923 57.6207 34.0057L58.6636 32.1881L56.7338 31.3947C55.3932 30.8382 54.7852 29.5444 54.514 28.3924C57.0066 28.1742 58.3425 26.0698 58.754 24.7915L58.7524 24.79Z" fill="#FFFFFE"/>
<path fill-rule="evenodd" clip-rule="evenodd" d="M29.908 7.54944C27.866 7.551 26.3337 8.2213 26.0001 9.01162L29.908 10.5549L33.8176 9.01162C33.4871 8.2213 31.9548 7.551 29.908 7.54944ZM29.9501 48.4514H29.8722C28.6345 48.4592 26.9276 48.2051 26.1076 47.9635L25.1193 50.6431C25.7709 50.8754 27.9782 51.3212 29.9127 51.3212C31.8441 51.3212 34.0529 50.8754 34.703 50.6431L33.7162 47.9651C32.8916 48.2051 31.1878 48.4592 29.9501 48.4514ZM37.4278 45.7858C36.692 46.2036 35.0506 46.8302 34.095 47.1202L34.8963 49.3337C36.374 48.9284 37.5946 48.4561 38.6016 47.9495L36.9368 47.3961L37.4278 45.7858ZM22.3929 45.7858L22.8855 47.3961L21.2192 47.9495C22.2246 48.4561 23.4498 48.9284 24.9229 49.3321L25.7257 47.1186C24.7717 46.8287 23.1272 46.2036 22.3929 45.7858ZM29.908 4.9883C31.4497 4.9883 32.9587 5.35774 34.1215 6.00465C34.2275 5.64924 34.3756 5.21588 34.5767 4.76227L34.1371 4.81527L33.6773 4.86203L33.4824 4.44271L32.8932 3.20033L31.8238 3.75838L31.4061 3.97038L31.0725 3.64303L29.908 2.4895L28.7467 3.64303L28.4147 3.97038L27.9985 3.75838L26.9229 3.20033L26.3414 4.44271L26.1435 4.86359L25.6821 4.81527L25.2456 4.76227C25.4467 5.21588 25.5932 5.64924 25.7008 6.00465C26.8668 5.35774 28.3757 4.9883 29.9096 4.9883H29.908ZM53.4229 19.356C53.624 19.4246 53.8266 19.4557 54.0277 19.4557C54.9007 19.4557 55.7424 18.8899 56.0308 18.2445C56.0308 18.2445 54.433 18.1479 52.7152 16.4004C52.1696 15.8361 51.5897 15.6662 51.094 15.6662C50.3224 15.6662 49.7425 16.0731 49.7425 16.0731C51.8189 17.1799 52.2413 18.9569 53.4229 19.356ZM5.79303 19.4542C5.99568 19.4542 6.19833 19.4246 6.39318 19.3544C7.57789 18.9554 8.005 17.1799 10.0767 16.0746C10.0767 16.0746 9.4968 15.6662 8.72986 15.6662C8.23103 15.6662 7.65271 15.8346 7.104 16.402C5.38774 18.1479 3.7915 18.2461 3.7915 18.2461C4.07833 18.8899 4.92165 19.4557 5.79303 19.4557V19.4542Z" fill="#FFFFFE"/>
<path fill-rule="evenodd" clip-rule="evenodd" d="M52.7978 32.104C51.1923 31.309 50.179 29.2046 49.9327 28.447C49.6677 32.6215 47.6335 35.5178 45.2563 38.305C44.0217 39.7516 43.5914 41.1576 43.5914 41.1576C43.5914 41.1576 43.8299 39.5645 44.8962 38.2676C47.1144 35.5989 49.2219 32.2755 49.3793 28.4314C49.4869 25.7502 48.7995 23.5757 47.7239 21.783C48.3256 23.6489 48.2398 25.9357 46.1993 28.0698C46.1993 28.0698 50.2632 23.1938 44.5828 18.193C42.3101 16.2913 39.8222 15.1159 38.5424 14.2835C43.1674 15.7956 45.4277 14.1308 45.4277 14.1308C43.95 15.4137 42.0373 15.3918 40.851 15.2063C41.1737 15.3638 41.5088 15.529 41.8674 15.7208C45.7691 17.8439 49.2733 21.3372 49.8719 26.1727V26.1353C50.7776 30.885 52.7978 32.104 52.7978 32.104ZM53.9857 26.5702C54.0215 26.5733 54.0527 26.5733 54.0886 26.5733C56.2631 26.5733 56.9989 24.2397 56.9989 24.2397H56.9568C56.5577 24.2397 53.3247 24.1462 51.0395 21.2359C49.5368 19.3232 48.3038 17.6412 45.8689 16.9803L45.6288 16.9366L45.5774 16.6919C45.5103 16.3193 45.7644 15.9702 46.3443 15.5945C49.7036 13.3903 47.4199 10.5782 47.4199 10.5782C47.4199 10.5782 46.4628 12.826 44.3163 12.826L44.1557 12.8229C43.9126 12.8104 43.6772 12.8026 43.4402 12.7512L43.0443 12.6733C43.0443 12.6733 43.6569 11.0053 42.1791 9.47611C41.0677 8.31946 39.7131 8.12305 38.9321 8.12305C38.5377 8.12305 38.2883 8.17449 38.2883 8.17449C39.0303 9.14564 39.5666 10.759 38.7092 11.7535C37.9688 12.6078 36.1605 12.6499 36.1605 13.925C36.1605 14.4643 36.664 15.0941 37.5681 15.66C40.2867 17.3747 42.9851 19.6505 44.1074 22.7012C45.5103 26.5047 43.9297 29.03 41.6756 30.4781C41.6756 30.4781 42.3833 31.1297 43.4075 31.2139C43.6164 31.2342 43.8206 31.2435 44.0108 31.2435C46.176 31.2435 47.2952 30.2256 47.2952 30.2256C47.2952 30.2256 47.1097 31.6317 45.9858 32.9364C44.9445 34.1398 43.5805 34.8506 41.4995 34.8803C41.4995 34.8803 41.434 35.8467 42.3553 36.6854C42.9461 37.2138 44.3069 37.3868 44.3069 37.3868C44.3069 37.3868 41.7567 37.9028 41.4746 41.6767C41.3218 43.7219 40.8011 44.4312 40.8011 44.4312H40.8463C46.7636 44.4312 46.6124 39.3463 46.6124 39.3463C46.6124 39.3463 47.024 40.8521 48.6748 41.2449C48.8743 41.2979 49.0878 41.3182 49.2905 41.3182C49.8205 41.3182 50.2835 41.1935 50.2835 41.1935C50.2835 41.1935 49.4183 39.3665 50.2757 36.8116C50.9881 34.6901 50.8727 33.1188 50.8727 33.1188C50.8727 33.1188 51.6693 34.3269 53.6474 34.3378H53.6677C54.1349 34.345 54.5965 34.2342 55.0095 34.0157C55.4226 33.7972 55.7739 33.4779 56.0308 33.0876C52.0855 31.4462 52.4752 26.1508 52.4752 26.1508C52.4752 26.1508 52.9865 26.5343 53.9857 26.5717V26.5702ZM14.5646 38.305C12.1874 35.5178 10.1531 32.6215 9.88499 28.447C9.64026 29.2061 8.62858 31.3105 7.02455 32.104C7.02455 32.104 9.04167 30.885 9.94735 26.1353V26.1727C10.5475 21.3372 14.0517 17.8439 17.9535 15.7223C18.312 15.5275 18.6487 15.3638 18.9683 15.2079C17.7836 15.3918 15.8693 15.4137 14.3931 14.1323C14.3931 14.1323 16.6534 15.7956 21.2769 14.2835C19.9986 15.1159 17.5108 16.2913 15.2396 18.193C9.55764 23.1938 13.6215 28.0698 13.6215 28.0698C11.5794 25.9342 11.4953 23.6505 12.097 21.783C11.0214 23.5757 10.3324 25.7502 10.4446 28.433C10.5989 32.2755 12.7049 35.5989 14.9184 38.2691C15.9909 39.563 16.2325 41.1561 16.2325 41.1561C16.2325 41.1561 15.7961 39.7516 14.5646 38.305ZM15.5155 37.3853C15.5155 37.3853 16.8763 37.2138 17.4671 36.6838C18.3868 35.8467 18.3229 34.8803 18.3229 34.8803C16.2403 34.8506 14.8779 34.1398 13.8319 32.9364C12.7127 31.6317 12.5256 30.2256 12.5256 30.2256C12.5256 30.2256 13.6449 31.2435 15.807 31.2435C16.0018 31.2435 16.2045 31.2342 16.4118 31.2139C17.0515 31.1491 17.6568 30.8927 18.1483 30.4781C15.8911 29.03 14.3105 26.5047 15.7119 22.6996C16.8342 19.6521 19.531 17.3747 22.2527 15.6584C23.1553 15.0941 23.6572 14.4643 23.6572 13.925C23.6572 12.6499 21.8521 12.6078 21.1116 11.7535C20.2543 10.759 20.7921 9.14564 21.5325 8.17449C21.5325 8.17449 21.2847 8.12305 20.8887 8.12305C20.1093 8.12305 18.7547 8.31946 17.6417 9.47611C16.1608 11.0069 16.7766 12.6748 16.7766 12.6748L16.3806 12.7528C16.1452 12.8011 15.9067 12.8104 15.6636 12.8245L15.5077 12.826C13.3565 12.826 12.4009 10.5798 12.4009 10.5798C12.4009 10.5798 10.1204 13.3903 13.4796 15.5945C14.0564 15.9702 14.3105 16.3209 14.2435 16.6919L14.192 16.9351L13.9473 16.9787C11.5171 17.6412 10.2841 19.3232 8.77823 21.2359C6.49299 24.1462 3.26311 24.2397 2.86249 24.2397H2.81885C2.81885 24.2397 3.55617 26.5733 5.73229 26.5733C5.76658 26.5733 5.79776 26.5733 5.83517 26.5702C6.83438 26.5343 7.34723 26.1508 7.34723 26.1508C7.34723 26.1508 7.73382 31.4462 3.78999 33.0876C3.78999 33.0876 4.50861 34.3393 6.15473 34.3393H6.17344C8.15314 34.3269 8.94814 33.1188 8.94814 33.1188C8.94814 33.1188 8.83279 34.6916 9.54205 36.8116C10.3994 39.3681 9.53894 41.1919 9.53894 41.1919C9.53894 41.1919 9.99879 41.3166 10.5303 41.3166C10.7361 41.3166 10.9466 41.2979 11.1445 41.2449C12.7938 40.8521 13.2068 39.3463 13.2068 39.3463C13.2068 39.3463 13.0556 44.4312 18.9745 44.4312H19.0181C19.0181 44.4312 18.4991 43.7219 18.3478 41.6767C18.0673 37.9044 15.5139 37.3853 15.5139 37.3853H15.5155ZM28.5737 18.6482H31.364V19.6069C31.0367 19.2047 30.3976 19.2873 30.3976 19.2873V20.67C30.3976 20.67 30.4194 21.3497 30.6594 21.6443H29.2783C29.5199 21.3497 29.5402 20.67 29.5402 20.67V19.2873C29.5402 19.2873 28.9042 19.2047 28.5737 19.6069V18.6482ZM25.534 18.7916C25.6307 18.8961 25.7258 19.0099 25.8177 19.1237C25.8396 19.1502 25.8598 19.1735 25.8816 19.2047C25.9674 19.317 26.0531 19.4385 26.1357 19.5601L26.1918 19.6428C26.2901 19.7924 26.3836 19.9467 26.4771 20.1073C27.3313 21.5835 28.6969 22.4658 29.9081 22.4673C31.1224 22.4658 32.4864 21.5835 33.3422 20.1073C33.4373 19.9436 33.5323 19.7846 33.6321 19.635C33.7459 19.4606 33.8676 19.2916 33.9969 19.1283C34.092 19.0099 34.1902 18.8945 34.2899 18.7885C34.3071 18.7729 34.3211 18.7558 34.3383 18.7418C34.7747 18.2959 35.2907 17.9561 35.9703 17.7675L35.6679 17.5913H35.6523L34.4489 16.893L33.2159 16.1837L29.9174 17.9826L29.9081 17.9748L29.9034 17.9826L26.6049 16.1837L25.3703 16.893L24.1669 17.5913H24.1529L23.8489 17.7675C24.527 17.9545 25.0446 18.2913 25.481 18.7386C25.4997 18.7542 25.5122 18.776 25.534 18.7916Z" fill="#FFFFFE"/>
<path fill-rule="evenodd" clip-rule="evenodd" d="M28.8585 12.5533V13.4574L28.6855 13.3763C28.6777 13.3701 28.422 13.314 27.9809 12.9617C27.2498 12.3943 27.2358 11.8705 27.2358 11.8705L28.857 12.5533H28.8585ZM29.6223 16.7886V11.1737L26.0557 9.96094L26.9973 15.4012L29.6239 16.7886H29.6223ZM30.9629 12.5533L32.5841 11.8705C32.5841 11.8705 32.5716 12.3943 31.8374 12.9617C31.3963 13.3124 31.1422 13.3701 31.1344 13.3763L30.9629 13.4558V12.5533ZM32.8226 15.4028L33.7595 9.9625L30.1944 11.1737V16.7886L32.8226 15.4012V15.4028ZM24.578 29.8048C24.9256 29.9295 25.3465 29.956 25.5632 29.956C25.571 29.9295 25.5834 29.8967 25.5943 29.8562C25.6115 29.7938 25.6302 29.7284 25.6442 29.6598C25.705 29.348 25.7253 28.9973 25.7315 28.7697C25.5322 28.6512 25.3697 28.4796 25.2623 28.274C25.1298 27.995 24.9412 27.864 24.6653 27.864C24.3067 27.864 23.9217 28.0823 23.7549 28.182C23.624 28.9583 24.1961 29.6629 24.578 29.8032V29.8048ZM32.4688 26.8258C31.8078 27.5476 30.5093 28.8056 30.447 28.8679L30.369 28.9459L26.2693 28.8819C26.2659 29.2211 26.2219 29.5586 26.1384 29.8874L26.1056 30.0168L30.9801 30.8959C31.4867 30.5405 32.8818 29.5195 33.4243 29.1189C33.0299 28.5421 32.9925 27.8578 33.0814 27.3777C32.8473 27.2298 32.6402 27.0432 32.4688 26.8258Z" fill="#FFFFFE"/>
<path fill-rule="evenodd" clip-rule="evenodd" d="M33.0256 21.8875C32.0809 22.826 31.1753 23.1736 30.3662 23.2546C30.2182 23.2707 30.0694 23.279 29.9204 23.2796H29.9001C29.6025 23.2795 29.3058 23.2482 29.0147 23.186C28.9617 23.3965 28.8947 23.8376 29.0864 24.2554C29.2579 24.6342 29.6055 24.9163 30.1137 25.105L30.2852 25.172L30.2867 25.3559C30.2867 25.4105 30.3273 26.6045 31.6273 26.9366C31.8393 26.7183 32.0326 26.5204 32.1729 26.3536C31.9079 25.7285 32.0482 25.0894 32.4332 24.776C32.4176 24.8431 32.2462 26.4097 33.501 26.9927L33.7084 27.0909L33.646 27.3107C33.6257 27.3777 33.208 28.8945 34.7278 29.4588L34.9959 29.5616L34.8759 29.822C34.8494 29.8796 34.2539 31.2561 35.6569 32.0386H38.6981V29.6178C37.6163 29.4853 37.1596 28.6139 37.0411 27.9966C36.5376 27.9108 36.1495 27.6942 35.8829 27.3403C35.2438 26.4985 35.7925 25.7269 35.8003 25.6848C35.7987 25.6911 35.8003 26.511 36.3054 27.0192C36.5563 27.2624 36.8525 27.4525 37.303 27.4946L37.5228 27.5149L37.5415 27.7409C37.5462 27.7892 37.6662 28.9007 38.6981 29.0753L38.6966 24.1338C38.6966 23.3669 38.9195 22.5968 39.1876 21.886H33.0256V21.8875ZM24.8371 24.1525L24.756 27.2982L25.1146 27.3543L25.9875 24.3349L25.5432 23.4058L24.8387 24.1525H24.8371ZM26.7295 35.8032C26.7055 35.8024 26.682 35.7968 26.6602 35.7866C26.6385 35.7764 26.6191 35.7619 26.6032 35.7439C26.5873 35.726 26.5752 35.705 26.5677 35.6822C26.5602 35.6594 26.5575 35.6353 26.5596 35.6114C26.561 35.5878 26.5671 35.5647 26.5775 35.5434C26.5879 35.5222 26.6025 35.5032 26.6204 35.4877C26.6382 35.4721 26.659 35.4603 26.6815 35.4529C26.704 35.4455 26.7277 35.4427 26.7513 35.4446C26.8542 35.4493 26.9259 35.5382 26.9228 35.6348C26.9192 35.6827 26.8969 35.7272 26.8607 35.7587C26.8245 35.7902 26.7774 35.8062 26.7295 35.8032ZM34.4644 38.5888C34.4909 38.5888 34.5221 38.5919 34.5501 38.5997C35.0957 38.7556 35.2313 40.7166 36.1838 40.8912C36.2773 40.9114 36.3646 40.9161 36.4394 40.9161C36.7153 40.9161 36.879 40.7992 37.0567 40.5888C37.0567 40.5888 36.5766 39.8358 36.2181 39.3261C35.7426 38.6589 35.3732 37.853 34.4862 37.853C34.4644 37.853 34.4394 37.853 34.4161 37.8561C34.2471 37.8629 34.0837 37.9181 33.9453 38.0151C33.6492 37.8193 33.3026 37.7137 32.9476 37.7112C32.3943 37.7112 31.9609 37.9668 31.7442 37.9668H31.7364L29.7567 37.7704C29.4465 37.7392 29.2018 37.4275 29.1129 37.3059L29.0787 37.2529C29.0787 37.1983 29.0786 37.1438 29.0755 37.0954C29.0085 35.4727 27.7552 34.779 27.3078 34.7665C27.3078 34.7665 27.3608 34.4579 27.2408 34.341L26.8043 34.871L25.3702 34.1508L26.3928 35.348L25.5277 36.3223C25.4185 36.4329 25.4326 36.5826 25.4778 36.6465L25.8519 36.977L26.3258 36.6886C26.3491 36.6714 26.3928 36.6652 26.4458 36.6652C26.5767 36.6652 26.7731 36.6995 26.9493 36.6995C27.1441 36.6995 27.3109 36.659 27.3312 36.4766C27.272 37.0783 26.7139 38.1242 27.0802 38.9457L27.3515 39.5662L25.6009 39.3136L24.781 40.6994C24.5284 41.1608 24.4879 41.6597 24.7311 41.9309L25.0382 42.3159C25.0382 42.3159 25.4684 41.8592 25.5635 41.5583L25.4248 41.4056C25.3079 41.2762 25.3141 41.1608 25.3858 41.0221L25.9002 40.1679L27.9656 40.6558L28.0748 40.4687C28.2151 40.2349 28.4177 40.1663 28.6391 40.1663C28.731 40.1663 28.8246 40.1772 28.9212 40.1928C29.3047 40.2692 29.936 40.3705 30.5673 40.3705C31.261 40.3705 31.9484 40.2458 32.3148 39.8358C33.063 40.9473 34.5813 41.1234 34.4613 41.6893L34.0622 43.5942C34.3272 43.5817 34.5813 43.5645 34.8229 43.5318L35.2033 41.5505C35.2341 41.3823 35.2611 41.2134 35.2843 41.0439C35.1378 40.8943 34.7839 40.581 34.5829 40.199C34.3163 39.6831 34.4613 39.4134 34.2119 38.7431C34.2119 38.7431 34.2898 38.5872 34.4644 38.5872V38.5888Z" fill="#FFFFFE"/>
<path fill-rule="evenodd" clip-rule="evenodd" d="M23.906 40.3889C23.906 40.3889 24.5919 40.1084 24.6543 39.9057L24.5607 39.6781C24.4968 39.5285 24.5046 39.3664 24.6309 39.2791L25.3698 38.7662L26.6059 39.0047C26.6059 39.0047 26.3814 38.7241 26.4033 38.35L25.2248 38.1006L24.1118 38.7787C23.9176 38.9227 23.7772 39.1276 23.7131 39.3607C23.6489 39.5938 23.6647 39.8416 23.7579 40.0647L23.906 40.3905V40.3889ZM32.6463 43.6188C32.8661 43.6095 33.1124 43.6064 33.379 43.6064C33.379 43.6064 34.015 41.7436 34.0508 41.6843C33.5785 41.464 33.1175 41.22 32.6697 40.9532C32.8583 41.2369 33.3166 41.5596 33.2262 41.809L32.6463 43.6188Z" fill="#FFFFFE"/>
<path fill-rule="evenodd" clip-rule="evenodd" d="M38.6979 32.5719H21.1222V39.1953C21.1222 41.9045 23.0785 43.599 25.967 43.599C28.3785 43.599 29.0145 43.6925 29.9108 44.5857C30.5297 43.9669 31.041 43.7377 32.0932 43.6504L32.1166 43.5491L32.67 41.8328C32.6388 41.7939 31.7347 40.7635 31.7347 40.7635C31.3761 40.8835 31.0737 40.9038 30.5655 40.9038C30.0465 40.9038 29.4588 40.8414 28.8212 40.723C28.7614 40.7088 28.7003 40.7015 28.6388 40.7011C28.5609 40.7011 28.5562 40.7074 28.5344 40.7463L28.4253 40.9287L28.2226 41.2623L27.8438 41.1735L26.1572 40.776L25.9249 41.1579L25.9608 41.2L26.165 41.426L26.0746 41.7222C25.9499 42.1072 25.5477 42.5577 25.4245 42.6824L25.0037 43.1345L24.6186 42.6497L24.3302 42.2865C24.0263 41.9466 23.9561 41.426 24.1276 40.8804C24.1226 40.8841 24.1166 40.8862 24.1105 40.8866L23.635 41.0846L23.4215 40.617L23.2702 40.288C23.1251 39.9515 23.099 39.5756 23.1962 39.2222C23.2934 38.8688 23.5081 38.5591 23.8049 38.3442L25.1611 37.5757L26.4549 37.8298C26.4861 37.7051 26.5329 37.2624 26.5687 37.1486C26.5438 37.1455 26.5204 37.1408 26.4955 37.1408L25.7503 37.4183L25.0333 36.9225C25.0333 36.9225 24.7527 36.6513 25.0068 36.3801L25.7005 35.3248L23.939 33.1112L26.6467 34.2242L26.8275 34.0013L27.1922 33.5617L27.6069 33.9577C27.7159 34.0643 27.7917 34.2002 27.8251 34.3489C28.5702 34.6404 29.9077 35.4993 30.0262 36.896L29.6084 37.0628V37.0738C29.7035 37.1875 29.783 37.2343 29.808 37.239L31.7409 37.4292C31.7908 37.4198 31.85 37.398 31.9186 37.3793C32.1602 37.2967 32.5203 37.1766 32.9474 37.1766C33.2966 37.1766 33.6333 37.2577 33.956 37.4105C34.076 37.3637 34.221 37.331 34.3925 37.32L34.486 37.3169C35.5195 37.3169 36.0339 38.0917 36.447 38.7105C36.5156 38.8181 36.5842 38.9178 36.6559 39.0176C37.0175 39.5289 37.4898 40.2756 37.5085 40.3083L37.7221 40.6403L37.4602 40.9459C37.2607 41.1797 36.9567 41.4525 36.4392 41.4525C36.3219 41.4515 36.205 41.4395 36.09 41.4166C35.984 41.3963 35.8805 41.3644 35.7814 41.3215C35.7655 41.4316 35.7473 41.5412 35.7268 41.6505L35.3885 43.4228C37.415 42.924 38.7026 41.3901 38.7026 39.1953L38.6979 32.5719ZM21.1222 32.0388H34.7931C34.1103 31.331 34.1212 30.4378 34.2942 29.8564C34.1098 29.7678 33.9384 29.6545 33.7845 29.5197C33.2498 29.9141 31.6193 31.1035 31.1937 31.4028L31.1018 31.4651L25.7363 30.4924H25.6272C25.4994 30.4924 25.3107 30.4877 25.105 30.4612C25.083 30.5598 25.0329 30.6498 24.9607 30.7204C24.8886 30.7911 24.7975 30.8393 24.6986 30.8592C24.5996 30.8792 24.497 30.87 24.4031 30.8329C24.3093 30.7957 24.2282 30.7321 24.1697 30.6498C24.1286 30.5937 24.0992 30.5298 24.0831 30.4621C24.067 30.3944 24.0647 30.3241 24.0762 30.2555L24.0964 30.1385C23.5446 29.7488 23.0317 28.8759 23.2593 27.9562L23.2812 27.8595L23.3591 27.8034C23.4378 27.7497 23.5189 27.6998 23.6023 27.6538L23.2126 27.5914C23.1434 27.5796 23.0815 27.5412 23.0402 27.4844C22.9988 27.4276 22.9813 27.357 22.9912 27.2875C23.0162 27.1409 23.1518 27.038 23.2967 27.0645L24.2242 27.2111L24.31 23.936L25.6911 22.4707L26.5547 24.2898L25.6443 27.4418L26.4643 27.5712C26.5343 27.5826 26.5969 27.6214 26.6384 27.679C26.6799 27.7365 26.6969 27.8082 26.6856 27.8783C26.6756 27.9403 26.6437 27.9968 26.5956 28.0374C26.5476 28.078 26.4866 28.1 26.4237 28.0996L26.3817 28.098L25.7129 27.9889C25.7223 28.0108 25.7347 28.0217 25.7441 28.0435C25.8185 28.1726 25.9306 28.2759 26.0652 28.3397L30.154 28.4067C30.327 28.2368 30.7557 27.8159 31.1984 27.3701C30.8131 27.2286 30.4748 26.9826 30.2215 26.6597C29.9682 26.3367 29.8098 25.9495 29.7643 25.5416C29.2031 25.3015 28.8134 24.943 28.5983 24.4753C28.3364 23.8955 28.43 23.3156 28.5001 23.0334C27.9545 22.8355 27.3809 22.4707 26.7947 21.8877H20.6343C20.8993 22.5985 21.1222 23.3686 21.1222 24.134V32.0372V32.0388Z" fill="#FFE52B"/>
<path fill-rule="evenodd" clip-rule="evenodd" d="M26.7516 35.4442C26.7279 35.4422 26.704 35.4451 26.6814 35.4526C26.6588 35.4601 26.638 35.472 26.6201 35.4877C26.6022 35.5034 26.5877 35.5226 26.5773 35.544C26.567 35.5654 26.561 35.5887 26.5599 35.6125C26.558 35.6363 26.5609 35.6602 26.5685 35.6828C26.5761 35.7054 26.5882 35.7262 26.6041 35.744C26.62 35.7618 26.6393 35.7761 26.6609 35.7862C26.6825 35.7963 26.7059 35.8019 26.7298 35.8027C26.7774 35.8057 26.8243 35.7899 26.8605 35.7587C26.8966 35.7276 26.9191 35.6835 26.9231 35.6359C26.9256 35.5878 26.909 35.5406 26.8769 35.5046C26.8448 35.4687 26.7997 35.447 26.7516 35.4442ZM34.898 49.3333L34.0952 47.1197C35.0508 46.8282 36.6922 46.2016 37.4295 45.7854L36.9385 47.3957L38.6018 47.949C37.5948 48.4541 36.3758 48.9264 34.898 49.3317V49.3333ZM29.9129 51.3208C27.9784 51.3208 25.7711 50.8749 25.1195 50.6427L26.1078 47.9646C26.9277 48.2047 28.6331 48.4588 29.8724 48.451H29.9503C31.188 48.4588 32.8918 48.2031 33.7164 47.9646L34.7032 50.6427C34.0516 50.8765 31.8443 51.3208 29.9129 51.3208ZM21.2209 47.949L22.8857 47.3957L22.3931 45.7854C23.1273 46.2016 24.7735 46.8298 25.7259 47.1197L24.9231 49.3333C23.45 48.928 22.2263 48.4541 21.2209 47.949ZM38.6766 47.458L37.6634 47.0683L37.944 46.0208L38.251 44.8782C38.251 44.8782 36.4584 45.854 33.9284 46.5851C33.2114 46.7908 32.6689 46.8859 32.6689 46.8859V47.6638C32.6689 47.6638 31.3158 47.8976 29.9503 47.8976H29.8724C28.5037 47.8976 27.1538 47.6638 27.1538 47.6638V46.8844C27.1538 46.8844 26.6097 46.7908 25.8927 46.5851C23.3658 45.8524 21.5732 44.8782 21.5732 44.8782L21.8756 46.0208L22.1624 47.0683L21.1461 47.458L20.019 47.8789C21.3097 48.504 23.0993 49.4128 24.736 49.8617L24.351 50.9186C24.351 50.9186 26.4274 51.8664 29.8864 51.8757V51.8773H29.9332V51.8757C33.3969 51.8664 35.4732 50.9186 35.4732 50.9186L35.0835 49.8617C36.7218 49.4128 38.5145 48.5055 39.799 47.8789L38.6766 47.458ZM25.6838 4.81327L26.1437 4.86315L26.3416 4.44227L26.9215 3.19988L27.9971 3.75794L28.4149 3.9715L29.9082 2.4875L31.0727 3.64103L31.4062 3.9715L31.824 3.75794L32.8934 3.19988L33.4826 4.44227L33.6775 4.86315L34.1373 4.81327L34.5769 4.76183C34.3758 5.21544 34.2277 5.64724 34.1202 6.00577C32.9588 5.35574 31.4499 4.98785 29.9098 4.98785C28.3759 4.98785 26.867 5.35574 25.701 6.00577C25.5752 5.58207 25.4232 5.16662 25.2458 4.76183L25.6822 4.81327H25.6838ZM29.9082 5.63477C31.9705 5.63477 33.6182 6.32065 34.5301 7.04862C34.5301 7.04862 34.8014 5.41653 35.7242 3.97774L34.064 4.1648L33.1958 2.31759L31.5278 3.17962L29.9082 1.57715L28.2948 3.17962L26.6238 2.31759L25.7571 4.16635L24.0969 3.97618C25.0213 5.41653 25.291 7.04706 25.291 7.04706C26.2076 6.31909 27.8506 5.63477 29.9082 5.63477ZM56.031 33.0872C56.031 33.0872 55.3139 34.3389 53.6678 34.3389H53.6475C51.6709 34.3265 50.8728 33.1184 50.8728 33.1184C50.8728 33.1184 50.9882 34.6897 50.2774 36.8112C49.42 39.3677 50.2836 41.1915 50.2836 41.1915C50.2836 41.1915 49.8222 41.3178 49.2906 41.3178C49.088 41.3178 48.876 41.2975 48.6749 41.2445C47.0241 40.8533 46.6126 39.3474 46.6126 39.3474C46.6126 39.3474 46.7653 44.4308 40.8465 44.4308H40.7997C40.7997 44.4308 41.3219 43.7215 41.4762 41.6763C41.7568 37.904 44.3071 37.3849 44.3071 37.3849C44.3071 37.3849 42.9462 37.2134 42.3554 36.685C41.4342 35.8479 41.4981 34.8799 41.4981 34.8799C43.5807 34.8502 44.9462 34.141 45.9859 32.936C46.6559 32.1651 47.108 31.2293 47.2953 30.2252C47.2953 30.2252 46.1761 31.2431 44.0109 31.2431C43.8207 31.2431 43.6181 31.2338 43.4092 31.2135C42.3835 31.1309 41.6758 30.4777 41.6758 30.4777C43.9298 29.0296 45.5105 26.5027 44.1091 22.6992C42.9867 19.6517 40.2869 17.3743 37.5698 15.6596C36.6657 15.0937 36.1607 14.4639 36.1607 13.923C36.1607 12.6495 37.9689 12.6089 38.7109 11.7531C39.5682 10.7586 39.0305 9.14524 38.2885 8.17409C38.2885 8.17409 38.5379 8.12265 38.9322 8.12265C39.7148 8.12265 41.0678 8.31906 42.1808 9.47571C43.657 11.0065 43.0444 12.6744 43.0444 12.6744L43.4404 12.7524C43.6773 12.8007 43.9127 12.8116 44.1574 12.8241L44.3164 12.8256C46.4629 12.8256 47.4216 10.5778 47.4216 10.5778C47.4216 10.5778 49.7037 13.3899 46.3445 15.5941C45.7661 15.9698 45.5105 16.3205 45.5775 16.6915L45.6305 16.9362L45.869 16.9783C48.3039 17.6408 49.5369 19.3244 51.0412 21.2355C53.3264 24.1458 56.5594 24.2393 56.9569 24.2393H57.0006C57.0006 24.2393 56.2632 26.5729 54.0887 26.5729C54.0528 26.5729 54.0217 26.5729 53.9858 26.5698C52.9882 26.5339 52.4737 26.1504 52.4737 26.1504C52.4737 26.1504 52.0856 31.4458 56.031 33.0872ZM54.0887 27.2868C56.7543 27.2868 57.6459 24.5698 57.6833 24.4544L57.9795 23.4958L56.9819 23.5269H56.9787C56.6249 23.5269 53.685 23.449 51.6008 20.7943L51.4028 20.548C50.0404 18.8131 48.7482 17.1623 46.438 16.4094C46.5303 16.3285 46.6288 16.255 46.7326 16.1896C47.9578 15.3821 48.6718 14.4016 48.8495 13.2621C49.1129 11.5489 48.0202 10.1834 47.9734 10.1273L47.2314 9.20759L46.7669 10.2988C46.7357 10.3658 45.9563 12.1117 44.3164 12.1117H44.1948C44.0826 12.107 43.975 12.1023 43.869 12.093C43.9267 11.3136 43.7849 10.1101 42.6937 8.97844C41.3827 7.61759 39.774 7.41338 38.9322 7.41338C38.4833 7.41338 38.184 7.4695 38.1513 7.47262L37.0305 7.69553L37.721 8.60744C38.2635 9.31203 38.7561 10.6105 38.1731 11.2886C37.986 11.5069 37.6026 11.6799 37.2362 11.856C36.4818 12.2036 35.4498 12.69 35.4498 13.923C35.4498 14.7211 36.0687 15.5582 37.191 16.2675C40.5082 18.3579 42.5565 20.5402 43.4404 22.9486C44.809 26.6524 43.0242 28.7661 41.2892 29.8792L40.5129 30.3795L41.1941 31.0062C41.2861 31.0872 42.1169 31.8214 43.3468 31.9274C43.5807 31.943 43.8036 31.9555 44.0125 31.9555C44.7997 31.9555 45.4715 31.8308 46.0171 31.6656C45.854 31.9502 45.664 32.2185 45.4497 32.4668C44.4598 33.6172 43.2408 34.141 41.4872 34.169L40.8356 34.1784L40.7857 34.8331C40.7795 34.9656 40.7311 36.1799 41.8769 37.2119C42.053 37.3709 42.265 37.5034 42.4879 37.6094C41.7085 38.3108 40.9197 39.5329 40.767 41.6249C40.6376 43.3708 40.2214 44.0177 40.2167 44.0255L39.4965 45.126L40.7982 45.1432C42.9478 45.1432 44.5939 44.5508 45.7334 43.3723C46.3236 42.7533 46.7641 42.0073 47.021 41.1915C47.654 41.7313 48.4588 42.0275 49.2906 42.0271C49.8986 42.0271 50.4067 41.8977 50.4629 41.8852L51.2937 41.6639L50.9274 40.8876C50.8993 40.8252 50.2072 39.2664 50.9523 37.0419C51.2735 36.0802 51.4371 35.2197 51.5166 34.5478C52.0404 34.8222 52.7403 35.0467 53.646 35.0498C55.7036 35.0498 56.6093 33.5112 56.6498 33.4473L57.0551 32.7396L56.3038 32.4309C53.8533 31.4115 53.3108 28.6742 53.2017 27.1933C53.4246 27.2354 53.6772 27.2744 53.9624 27.2822L54.0887 27.2868Z" fill="#1A1919"/>
<path fill-rule="evenodd" clip-rule="evenodd" d="M51.0943 15.6665C51.59 15.6665 52.1699 15.8364 52.7154 16.4022C54.4333 18.1481 56.0311 18.2463 56.0311 18.2463C55.7411 18.8901 54.8994 19.456 54.028 19.456C53.8269 19.456 53.6227 19.4248 53.4247 19.3547C52.2416 18.9556 51.8191 17.1801 49.7443 16.0749C49.7443 16.0749 50.3211 15.6665 51.0943 15.6665ZM49.4061 16.7046C50.399 17.2347 50.9789 17.947 51.4871 18.5768C51.9859 19.1925 52.4582 19.7849 53.2018 20.0312C53.4637 20.1216 53.7427 20.1652 54.028 20.1652C55.1394 20.1652 56.2571 19.4825 56.6811 18.5378L57.1067 17.5932L56.0763 17.5308C56.028 17.5308 54.7014 17.4077 53.2267 15.8987C52.6188 15.2783 51.8846 14.9541 51.0943 14.9541C50.1278 14.9541 49.4107 15.4373 49.3328 15.4872L48.385 16.1559L49.4061 16.7046ZM49.8722 26.1371V26.1729C49.2736 21.3375 45.7693 17.8457 41.8676 15.7226C41.5091 15.5293 41.1739 15.3641 40.8512 15.2082C42.0375 15.3921 43.9502 15.4139 45.4279 14.1326C45.4279 14.1326 43.1677 15.7959 38.5426 14.2838C39.8209 15.1162 42.3103 16.2916 44.5831 18.1933C50.2619 23.194 46.1996 28.07 46.1996 28.07C48.2416 25.936 48.3258 23.6508 47.7241 21.7833C48.7997 23.5759 49.4856 25.7505 49.3796 28.4332C49.2237 32.2757 47.1146 35.5991 44.8964 38.2694C43.8302 39.5632 43.5932 41.1564 43.5932 41.1564C43.5932 41.1564 44.0234 39.7519 45.2565 38.3068C47.6337 35.5165 49.6679 32.6218 49.9329 28.4473C50.1792 29.2064 51.1925 31.3108 52.7981 32.1043C52.7981 32.1043 50.7794 30.8853 49.8722 26.1371ZM18.9763 44.4314C13.0574 44.4314 13.2086 39.3481 13.2086 39.3481C13.2086 39.3481 12.794 40.8539 11.1463 41.2452C10.945 41.2959 10.7381 41.3205 10.5306 41.3185C10.0006 41.3185 9.53915 41.1938 9.53915 41.1938C9.53915 41.1938 10.4012 39.3668 9.54227 36.8119C8.83457 34.6919 8.94992 33.1191 8.94992 33.1191C8.94992 33.1191 8.15336 34.3272 6.17521 34.3396H6.15495C4.51039 34.3396 3.79177 33.0879 3.79177 33.0879C7.7356 31.4464 7.34901 26.1511 7.34901 26.1511C7.34901 26.1511 6.8346 26.5346 5.83695 26.572H5.73251C3.55639 26.572 2.81907 24.24 2.81907 24.24H2.86427C3.26645 24.24 6.49477 24.1465 8.77845 21.2362C10.2827 19.3235 11.5173 17.6415 13.9475 16.9806L14.1922 16.9369L14.2437 16.6922C14.3123 16.3212 14.0566 15.9704 13.4799 15.5948C10.1206 13.3906 12.4012 10.58 12.4012 10.58C12.4012 10.58 13.3552 12.8263 15.5079 12.8263L15.6638 12.8247C15.9069 12.8123 16.1454 12.8014 16.3808 12.7515L16.7768 12.6751C16.7768 12.6751 16.1626 11.0072 17.6435 9.47639C18.7565 8.31974 20.108 8.12333 20.8889 8.12333C21.2864 8.12333 21.5312 8.17477 21.5312 8.17477C20.7923 9.14592 20.2561 10.7593 21.1103 11.7538C21.8523 12.6096 23.659 12.6502 23.659 13.9237C23.659 14.4646 23.1555 15.0944 22.2529 15.6602C19.5328 17.3749 16.8344 19.6508 15.7121 22.7014C14.3123 26.505 15.8929 29.0303 18.1485 30.48C18.1485 30.48 17.4393 31.1316 16.4136 31.2142C16.2125 31.2336 16.0107 31.2434 15.8087 31.2438C13.6451 31.2438 12.5259 30.2274 12.5259 30.2274C12.5259 30.2274 12.7129 31.6319 13.8322 32.9382C14.8766 34.1416 16.2405 34.8509 18.3216 34.8805C18.3216 34.8805 18.3886 35.847 17.4673 36.6857C16.8765 37.2157 15.5157 37.3871 15.5157 37.3871C15.5157 37.3871 18.0675 37.9047 18.3481 41.677C18.5008 43.7222 19.0184 44.4314 19.0184 44.4314H18.9763ZM19.6045 44.0261C19.6029 44.0184 19.1898 43.3714 19.0573 41.6256C18.9014 39.5336 18.1127 38.3115 17.3317 37.61C17.5577 37.504 17.7682 37.3715 17.9428 37.2125C19.0885 36.1806 19.0402 34.9678 19.0324 34.8338L18.9887 34.1791L18.3325 34.1697C16.5835 34.1417 15.3629 33.6179 14.3731 32.4675C14.1597 32.2184 13.9697 31.9502 13.8057 31.6662C14.3512 31.833 15.0184 31.9562 15.8087 31.9562C16.0192 31.9562 16.2405 31.9437 16.4728 31.9281C17.2684 31.8487 18.0207 31.5277 18.6287 31.0084L19.3099 30.3802L18.5336 29.8814C16.7939 28.7668 15.0153 26.6546 16.3824 22.9493C17.2662 20.5409 19.3099 18.3601 22.6333 16.2682C23.7556 15.5589 24.3698 14.7218 24.3698 13.9237C24.3698 12.6907 23.341 12.2043 22.5865 11.8567C22.2186 11.6806 21.8352 11.506 21.6497 11.2893C21.0651 10.6112 21.5561 9.31271 22.1002 8.60812L22.7954 7.69621L21.6684 7.4733C21.6372 7.46862 21.341 7.41406 20.8889 7.41406C20.0487 7.41406 18.4416 7.61827 17.1322 8.97912C16.0394 10.1108 15.896 11.3158 15.9522 12.0937C15.8462 12.103 15.7402 12.1077 15.6279 12.1124H15.5079C13.8618 12.1124 13.0855 10.3665 13.0559 10.2994L12.5929 9.20827L11.8447 10.128C11.8026 10.1841 10.7067 11.5496 10.9748 13.2628C11.151 14.4007 11.8649 15.3828 13.0902 16.1902C13.2242 16.276 13.3162 16.3492 13.3832 16.41C11.0699 17.1629 9.78077 18.8137 8.41836 20.5487L8.22195 20.795C6.13936 23.4497 3.19163 23.5292 2.83933 23.5292L1.83545 23.498L2.14098 24.4551C2.17683 24.5705 3.06536 27.2875 5.73251 27.2875L5.86033 27.2828C6.14248 27.275 6.39657 27.2361 6.62104 27.1924C6.51192 28.6733 5.96633 31.4122 3.51586 32.4301L2.76763 32.7418L3.17292 33.448C3.21033 33.5119 4.12068 35.0504 6.18145 35.0504C6.91902 35.0578 7.64744 34.8867 8.30457 34.5516C8.38407 35.2219 8.5493 36.0808 8.87042 37.0426C9.61554 39.2655 8.92186 40.8259 8.89536 40.8882L8.52748 41.6645L9.35833 41.8843C9.41445 41.8999 9.92574 42.0277 10.5306 42.0277C11.3627 42.0299 12.1681 41.7334 12.8002 41.1922C13.0262 41.889 13.4144 42.6762 14.0862 43.373C15.2304 44.5499 16.875 45.1438 19.023 45.1438L20.3247 45.1267L19.6045 44.0261Z" fill="#1A1919"/>
<path fill-rule="evenodd" clip-rule="evenodd" d="M7.10421 16.4016C7.65292 15.8358 8.23124 15.6643 8.73006 15.6643C9.497 15.6643 10.0784 16.0743 10.0784 16.0743C8.00521 17.181 7.57809 18.955 6.39339 19.3556C6.20044 19.4225 5.99744 19.4557 5.79324 19.4538C4.92186 19.4538 4.07853 18.8895 3.79171 18.2457C3.79171 18.2457 5.38794 18.1475 7.10421 16.4016ZM5.79324 20.1646C6.0785 20.1646 6.35753 20.121 6.62253 20.0306C7.36453 19.7843 7.83842 19.1935 8.33724 18.5762C8.84697 17.948 9.42062 17.2356 10.4152 16.7056L11.4377 16.1553L10.4869 15.485C10.4089 15.4367 9.69653 14.955 8.73006 14.955C7.93818 14.955 7.20241 15.2777 6.59603 15.8981C5.11983 17.4086 3.79639 17.5302 3.74806 17.5318L2.71924 17.5926L3.14012 18.5388C3.56724 19.4819 4.68336 20.1646 5.79324 20.1646ZM10.4432 28.4326C10.3341 25.7499 11.02 23.5753 12.0956 21.7827C11.497 23.6501 11.578 25.9354 13.6232 28.071C13.6232 28.071 9.5578 23.1919 15.2397 18.1943C17.5125 16.2909 19.9988 15.1156 21.277 14.2832C16.6536 15.7952 14.3948 14.1304 14.3948 14.1304C15.871 15.4133 17.7837 15.3931 18.97 15.206C18.6489 15.3634 18.3122 15.5271 17.9536 15.722C14.0519 17.8435 10.5492 21.3369 9.9475 26.1723V26.1365C9.04183 30.8846 7.02471 32.1036 7.02471 32.1036C8.6303 31.3086 9.64042 29.2042 9.88671 28.4466C10.1548 32.6212 12.1875 35.5175 14.5632 38.3062C15.7978 39.7512 16.2311 41.1557 16.2311 41.1557C16.2311 41.1557 15.9911 39.5642 14.9201 38.2688C12.7066 35.5985 10.5991 32.2751 10.4432 28.4326ZM28.5739 18.6479V19.6081C28.9044 19.2044 29.5404 19.287 29.5404 19.287V20.6697C29.5404 20.6697 29.5201 21.3493 29.2785 21.6439H30.6596C30.4195 21.3493 30.3962 20.6697 30.3962 20.6697V19.287C30.3962 19.287 31.0353 19.2044 31.3626 19.6081V18.6479H28.5723H28.5739ZM27.9815 12.9613C28.4227 13.312 28.6783 13.3713 28.6861 13.3759L28.8576 13.4554V12.5529L27.2364 11.8701C27.2364 11.8701 27.2504 12.3939 27.9815 12.9613ZM31.8381 12.9613C32.5707 12.3939 32.5863 11.8701 32.5863 11.8701L30.9636 12.5529V13.457L31.135 13.3759C31.1428 13.3713 31.3969 13.312 31.8381 12.9613Z" fill="#1A1919"/>
<path fill-rule="evenodd" clip-rule="evenodd" d="M29.9093 10.5559L26.0014 9.00955C26.3334 8.22078 27.8657 7.55049 29.9093 7.54893C31.9545 7.55049 33.4868 8.22078 33.8189 9.00955L29.9093 10.5559ZM32.8228 15.4023L30.1962 16.7896V11.1716L33.7612 9.95887L32.8228 15.3992V15.4023ZM34.4502 16.8925L35.6505 17.5909H35.6676L35.97 17.767C35.292 17.9541 34.7729 18.2955 34.338 18.7413L34.2912 18.788C34.1886 18.8975 34.0904 19.0108 33.9966 19.1279L33.942 19.1996C33.8485 19.3196 33.7596 19.4428 33.677 19.5706L33.6318 19.6345C33.5307 19.7888 33.4345 19.9464 33.3434 20.1068C32.4861 21.583 31.1221 22.4653 29.9093 22.4684C28.6966 22.4653 27.331 21.583 26.4768 20.1068C26.386 19.9494 26.2909 19.7945 26.1915 19.6423L26.1354 19.5597C26.054 19.4393 25.9698 19.3208 25.8829 19.2043C25.8611 19.1731 25.8408 19.1497 25.819 19.1232C25.7275 19.0095 25.6323 18.8988 25.5337 18.7912C25.5135 18.7756 25.4994 18.7553 25.4807 18.7382C25.0353 18.2718 24.471 17.936 23.8486 17.767L24.1542 17.5909H24.1666L25.3716 16.8925L26.6046 16.1833L29.9031 17.9821L29.9093 17.9759L29.9187 17.9821L33.2156 16.1833L34.4502 16.8925ZM39.189 21.887C38.9193 22.5978 38.6964 23.3679 38.6964 24.1333L38.6995 29.0747C37.6692 28.9033 37.546 27.7903 37.5429 27.7419L37.5242 27.5159L37.3013 27.4956C36.9233 27.4623 36.57 27.2935 36.3067 27.0202C35.8001 26.5136 35.8001 25.6936 35.8001 25.6858C35.7939 25.7279 35.2452 26.4964 35.8812 27.3382C36.1493 27.6936 36.539 27.9134 37.041 27.9991C37.1594 28.6149 37.6177 29.4863 38.6995 29.6203V32.0365H35.6583C34.2553 31.2555 34.8492 29.8806 34.8773 29.8214L34.9958 29.5595L34.7277 29.4582C33.2078 28.8939 33.6271 27.3756 33.6474 27.3101L33.7097 27.0888L33.5009 26.9921C32.2476 26.4091 32.4175 24.841 32.4346 24.7755C32.048 25.0888 31.9093 25.7264 32.1743 26.3546C32.0309 26.5198 31.8376 26.7178 31.6272 26.936C31.261 26.8561 30.9313 26.6578 30.689 26.3718C30.4468 26.0859 30.3053 25.7281 30.2866 25.3538L30.285 25.1699L30.1135 25.1044C29.6069 24.9173 29.2593 24.6336 29.0863 24.2548C28.8945 23.8355 28.9616 23.3975 29.0146 23.1839C29.3059 23.2443 29.6025 23.2757 29.9 23.2775H29.9202C30.0715 23.2775 30.2195 23.2681 30.3661 23.2541C31.1767 23.173 32.0808 22.8254 33.0254 21.887H39.189ZM35.3886 43.4221L35.7284 41.6498L35.783 41.3224C35.9927 41.4046 36.2156 41.4484 36.4408 41.4518C36.9583 41.4518 37.2607 41.1774 37.4618 40.9452L37.7206 40.6412L37.5086 40.3076C37.4899 40.2749 37.0176 39.5282 36.6559 39.0169C36.5841 38.9159 36.5149 38.813 36.4486 38.7083C36.0355 38.091 35.5195 37.3162 34.4845 37.3162L34.3925 37.3193C34.2434 37.3274 34.0964 37.3573 33.956 37.4082C33.6411 37.2576 33.2966 37.1788 32.9475 37.1775C32.5963 37.1859 32.249 37.2534 31.9202 37.377C31.8516 37.3973 31.7893 37.4191 31.741 37.4285L29.808 37.2383C29.7831 37.232 29.7051 37.1853 29.6085 37.073V37.0621L30.0262 36.8953C29.9093 35.4986 28.5703 34.6397 27.8252 34.3482C27.7922 34.1989 27.7163 34.0624 27.607 33.9554L27.1923 33.561L26.8275 33.999L26.6483 34.2235L23.939 33.109L25.7005 35.324L25.0068 36.3794C24.7512 36.649 25.0333 36.9218 25.0333 36.9218L25.7504 37.4175L26.4955 37.1385C26.5205 37.1385 26.5423 37.1448 26.5688 37.1479C26.5329 37.2617 26.4862 37.7059 26.455 37.8291L25.1627 37.575L23.8065 38.3435C23.1066 38.8579 23.0115 39.7059 23.2719 40.2873L23.4215 40.6178L23.6351 41.0839L24.1105 40.8875C24.1183 40.8844 24.1245 40.8828 24.1292 40.8781C23.9577 41.4253 24.0279 41.9444 24.3319 42.2858L24.6202 42.649L25.0037 43.1353L25.4246 42.6817C25.5493 42.557 25.9515 42.1065 26.0746 41.7199L26.165 41.4253L25.9608 41.1993L25.9265 41.1572L26.1572 40.7753L27.8439 41.1743L28.2242 41.2616L28.4269 40.9265L28.536 40.7456C28.5563 40.7067 28.561 40.7004 28.6389 40.7004C28.6997 40.7004 28.7589 40.7067 28.8228 40.7223C29.398 40.8358 29.9825 40.8958 30.5687 40.9015C31.0722 40.9015 31.3762 40.8828 31.7347 40.7628C31.7347 40.7628 32.6404 41.7916 32.6716 41.8321L32.1166 43.5468L32.0917 43.6497C31.0426 43.7355 30.5313 43.9662 29.9125 44.585C29.0146 43.6934 28.3801 43.5983 25.9686 43.5983C23.0801 43.5983 21.1222 41.9038 21.1222 39.193V32.5712H38.6995L38.7027 39.193C38.7027 41.3894 37.4151 42.9218 35.3886 43.4221ZM24.5626 39.6778L24.6545 39.907C24.5922 40.1065 23.9063 40.3902 23.9063 40.3902L23.7598 40.0644C23.6662 39.8412 23.6502 39.593 23.7143 39.3595C23.7785 39.1261 23.9191 38.9209 24.1136 38.7768L25.2251 38.0988L26.4051 38.3482C26.3817 38.7238 26.6062 39.0044 26.6062 39.0044L25.3716 38.7675L24.6312 39.2788C24.5065 39.3661 24.4971 39.5282 24.5626 39.6778ZM35.2015 41.5484L34.8227 43.5297C34.5796 43.564 34.3239 43.5827 34.062 43.592L34.4611 41.6903C34.5796 41.1229 33.0644 40.9467 32.3146 39.8353C31.9483 40.2468 31.2608 40.37 30.5687 40.37C29.9358 40.37 29.3061 40.2686 28.921 40.1923C28.8283 40.1761 28.7345 40.1673 28.6405 40.1658C28.4175 40.1658 28.2164 40.2343 28.0762 40.4697L27.967 40.6568L25.9 40.1689L25.3856 41.0215C25.3139 41.1603 25.3077 41.2756 25.4246 41.405L25.5649 41.5578C25.4682 41.8586 25.038 42.3154 25.038 42.3154L24.7309 41.9303C24.4877 41.6591 24.5283 41.1603 24.7808 40.6989L25.6007 39.3115L27.3513 39.5656L27.0801 38.9436C26.7137 38.1221 27.2718 37.0777 27.331 36.476C27.3108 36.6584 27.144 36.6989 26.9507 36.6989C26.773 36.6989 26.5766 36.6662 26.4456 36.6662C26.3942 36.6662 26.349 36.6709 26.3256 36.688L25.8517 36.9764L25.4776 36.6459C25.4324 36.5836 25.4184 36.4324 25.5275 36.3201L26.3942 35.3474L25.3716 34.1503L26.8026 34.872L27.2406 34.3404C27.3607 34.4589 27.3077 34.766 27.3077 34.766C27.755 34.7785 29.0099 35.4721 29.0754 37.0933C29.08 37.1432 29.08 37.1978 29.08 37.2523L29.1128 37.3053C29.2016 37.4285 29.4464 37.7418 29.7566 37.7698L31.7363 37.9663H31.7441C31.9623 37.9663 32.3941 37.7106 32.9475 37.7106C33.2515 37.7106 33.5866 37.7885 33.9451 38.0146C33.9451 38.0146 34.126 37.8712 34.4175 37.8556C34.4393 37.8525 34.4642 37.8525 34.4845 37.8525C35.373 37.8525 35.7425 38.6568 36.2195 39.3255C36.578 39.8337 37.0565 40.5882 37.0565 40.5882C36.8804 40.7986 36.7152 40.9155 36.4392 40.9155C36.3534 40.9159 36.2678 40.9075 36.1836 40.8906C35.2327 40.7145 35.094 38.755 34.5515 38.5991C34.523 38.5916 34.4937 38.588 34.4642 38.5882C34.2896 38.5882 34.2132 38.7441 34.2132 38.7441C34.4627 39.4128 34.3161 39.6825 34.5842 40.1985C34.7838 40.5804 35.1376 40.8937 35.2842 41.0434C35.2842 41.0434 35.2452 41.3333 35.2015 41.55V41.5484ZM33.3793 43.6061C33.1143 43.6061 32.868 43.6092 32.6466 43.6185L33.2265 41.8088C33.3169 41.5578 32.8586 41.2351 32.67 40.9514C32.9553 41.1322 33.6957 41.5282 34.0527 41.684C33.8213 42.3223 33.5969 42.963 33.3793 43.6061ZM24.7559 27.2977L24.8385 24.152L25.5431 23.4053L25.9858 24.3343L25.1128 27.3538L24.7543 27.2992L24.7559 27.2977ZM25.2625 28.2735C25.3695 28.4784 25.5314 28.6495 25.7301 28.7676C25.7247 29.0666 25.696 29.3647 25.6444 29.6593C25.6288 29.7279 25.6132 29.7918 25.593 29.8557C25.5836 29.8962 25.5711 29.929 25.5633 29.9555C25.3467 29.9555 24.9242 29.929 24.5797 29.8027C24.1962 29.6624 23.6242 28.9578 23.7567 28.1815C23.9219 28.0802 24.3054 27.8635 24.6655 27.8635C24.9414 27.8635 25.13 27.9945 25.2625 28.2735ZM33.4245 29.1184C32.8836 29.519 31.4869 30.54 30.9802 30.8954L26.1042 30.0163L26.1385 29.8869C26.2009 29.6328 26.2679 29.2867 26.271 28.8799L30.3692 28.9453L30.4471 28.8674C30.5095 28.805 31.808 27.5471 32.4689 26.8253C32.6264 27.0233 32.8228 27.2104 33.0815 27.3756C32.9942 27.8588 33.0301 28.5416 33.4245 29.1184ZM26.7948 21.887C27.3825 22.47 27.9546 22.8332 28.5002 23.0327C28.43 23.3133 28.3365 23.8963 28.5984 24.4746C28.8135 24.9423 29.2032 25.3008 29.7659 25.5409C29.8283 26.1176 30.1915 26.9859 31.2 27.3694C30.7573 27.8152 30.3271 28.2361 30.1556 28.4044L26.0653 28.3405C25.9302 28.2759 25.8181 28.1715 25.7442 28.0412C25.7364 28.021 25.7223 28.01 25.713 27.9882L26.3817 28.0973L26.4238 28.0989C26.4867 28.0993 26.5477 28.0773 26.5957 28.0367C26.6437 27.9961 26.6756 27.9396 26.6857 27.8775C26.697 27.8077 26.6802 27.7363 26.639 27.6787C26.5979 27.6212 26.5356 27.5823 26.4659 27.5705L25.6444 27.4395L26.5547 24.2891L25.6927 22.47L24.31 23.9353L24.2259 27.2104L23.2968 27.0623C23.1534 27.0342 23.0162 27.1402 22.9897 27.2852C22.9793 27.3554 22.9969 27.4268 23.0385 27.4842C23.0802 27.5416 23.1427 27.5804 23.2126 27.5923L23.6023 27.6515C23.462 27.731 23.3701 27.7949 23.3592 27.8027L23.2812 27.8588L23.2594 27.9555C23.0334 28.8752 23.5447 29.7481 24.0965 30.1378L24.0762 30.2548C24.0544 30.395 24.0856 30.5353 24.1697 30.6491C24.2177 30.7183 24.2818 30.7746 24.3565 30.8132C24.4313 30.8518 24.5143 30.8715 24.5984 30.8705C24.7166 30.8695 24.8309 30.8286 24.9229 30.7545C25.0148 30.6804 25.079 30.5773 25.105 30.4621C25.3108 30.4855 25.4994 30.4917 25.6272 30.4917H25.7379L31.1018 31.4628L31.1938 31.402C31.6209 31.1028 33.2515 29.9134 33.7846 29.519C33.9327 29.6453 34.0963 29.7606 34.2943 29.8557C34.1213 30.4371 34.1104 31.3303 34.7931 32.038H21.1222V24.1348C21.1222 23.3679 20.8993 22.5978 20.6343 21.887H26.7948ZM26.0559 9.96199L29.6241 11.1732V16.7881L26.9975 15.4007L26.0559 9.96043V9.96199ZM34.7604 9.2839C34.7604 7.91369 32.458 6.68066 29.9171 6.68066H29.9015C27.3607 6.68066 25.0598 7.91369 25.0598 9.2839L25.1097 9.62061L26.1245 15.4553L25.105 16.0476L22.4691 17.5909H22.4784C22.4784 17.5909 21.8861 17.8964 21.6102 18.0835C20.6063 18.7818 20.3927 19.8013 20.9757 20.2222C21.1191 19.3913 21.7754 18.523 23.0022 18.523C23.8876 18.523 24.561 18.9813 25.1066 19.6657C25.2469 19.8387 25.3794 20.0242 25.5025 20.2222C25.6553 20.4731 25.8096 20.6945 25.9608 20.9065H19.1675C19.6663 21.9119 20.1417 22.9766 20.1417 24.1333V39.1946C20.1417 42.8391 22.9398 44.5788 25.9671 44.5788C28.3069 44.5788 28.6217 44.4728 29.9125 45.7604C31.1969 44.4728 31.5134 44.5788 33.8547 44.5788C36.8835 44.5788 39.6769 42.8391 39.6769 39.1946V24.1333C39.6769 22.9766 40.1524 21.9119 40.6543 20.9065H33.8578C34.0106 20.6945 34.1634 20.4731 34.3161 20.2222C34.4408 20.0242 34.5733 19.8387 34.7105 19.6657C35.2592 18.9782 35.9326 18.523 36.818 18.523C38.0448 18.523 38.6995 19.3913 38.8445 20.2222C39.4275 19.8013 39.2171 18.7818 38.2054 18.0835C37.9373 17.8964 37.3418 17.5909 37.3418 17.5909H37.3527L34.7105 16.0476L33.6973 15.4553L34.7105 9.62061L34.7604 9.2839Z" fill="#1A1919"/>
<path d="M78.4139 34.3876H83.0904V23.507H89.5128V19.5476H71.9916V23.507H78.4139V34.3876ZM103.698 19.5476L95.9039 28.1835V19.5476H91.3833V34.3876H95.3739L103.168 25.7517V34.3876H107.689V19.5476H103.698ZM115.634 28.8694H122.898V34.3876H127.419V19.5476H122.898V24.9723H115.634V19.5476H111.113V34.3876H115.634V28.8694ZM140.008 34.3876C141.037 34.3876 141.972 34.2941 142.845 34.0447C145.183 33.39 146.711 31.4882 146.711 28.9006C146.711 26.4376 145.401 24.7229 143.312 23.9435C142.315 23.5694 141.13 23.5382 140.008 23.5382H135.362V19.5476H130.842V34.3876H140.008ZM135.362 27.03H139.228C139.852 27.03 140.444 27.03 140.974 27.217C141.722 27.4664 142.159 28.09 142.159 28.8382C142.159 29.6176 141.722 30.2723 141.005 30.5841C140.507 30.8023 140.008 30.8023 139.228 30.8023H135.362V27.03ZM153.569 28.7758H154.817L160.21 34.3876H166.227L158.714 26.6558L165.947 19.5476H160.272L154.817 25.1282H153.569V19.5476H149.049V34.3876H153.569V28.7758Z" fill="#333333"/>
<path d="M175.528 19.1425C169.449 19.1425 165.801 22.5719 165.801 26.999C165.801 31.4261 169.449 34.8555 175.528 34.8555C181.577 34.8555 185.224 31.4261 185.224 26.999C185.224 22.5719 181.577 19.1425 175.528 19.1425ZM175.528 31.239C172.504 31.239 170.571 29.4308 170.571 26.999C170.571 24.5672 172.504 22.7902 175.528 22.7902C178.521 22.7902 180.485 24.5672 180.485 26.999C180.485 29.4308 178.521 31.239 175.528 31.239ZM200.279 20.2025V18.7061H195.759V20.2025C190.085 20.3272 186.686 22.7278 186.686 26.9678C186.686 31.2078 190.085 33.4213 195.759 33.5461V35.0425H200.279V33.5461C205.985 33.4213 209.383 31.2078 209.383 26.9678C209.383 22.7278 205.985 20.3272 200.279 20.2025ZM195.759 30.3661C192.641 30.2413 191.269 28.9631 191.269 26.9678C191.269 24.9725 192.641 23.5384 195.759 23.4137V30.3661ZM200.279 30.3661V23.4137C203.428 23.5384 204.769 24.9725 204.769 26.9678C204.769 28.9631 203.428 30.2413 200.279 30.3661ZM224.422 20.2025V18.7061H219.902V20.2025C214.228 20.3272 210.829 22.7278 210.829 26.9678C210.829 31.2078 214.228 33.4213 219.902 33.5461V35.0425H224.422V33.5461C230.128 33.4213 233.526 31.2078 233.526 26.9678C233.526 22.7278 230.128 20.3272 224.422 20.2025ZM219.902 30.3661C216.784 30.2413 215.412 28.9631 215.412 26.9678C215.412 24.9725 216.784 23.5384 219.902 23.4137V30.3661ZM224.422 30.3661V23.4137C227.571 23.5384 228.912 24.9725 228.912 26.9678C228.912 28.9631 227.571 30.2413 224.422 30.3661Z" fill="#333333"/>
</g>
<defs>
<clipPath id="clip0_148_8499">
<rect width="233.824" height="53" fill="white" transform="translate(0.285645)"/>
</clipPath>
</defs>
</svg>
