<svg width="79" height="47" viewBox="0 0 79 47" fill="none" xmlns="http://www.w3.org/2000/svg">
<g clip-path="url(#clip0_148_8521)">
<path d="M54.2282 11.3944V0.427734H48.3888V11.3944C48.3888 16.9489 51.0949 19.5126 56.6494 19.5126H65.4797V0.427734H59.6403V14.3853H57.0767C55.2252 14.3853 54.2282 13.8156 54.2282 11.3944Z" fill="#0078DC"/>
<path d="M32.5798 29.4815V40.4481H38.4192V29.4815C38.4192 23.9269 35.7131 21.3633 30.1585 21.3633H21.3282V40.4481H27.1676V26.4906H29.7313C31.5828 26.4906 32.5798 27.2027 32.5798 29.4815Z" fill="#0078DC"/>
<path d="M40.4126 7.2641H34.8581V0.427734H29.0187V19.5126H35.0005V12.2489H40.4126V19.5126H46.3944V0.427734H40.4126V7.2641Z" fill="#0078DC"/>
<path d="M69.3248 20.9365C62.7733 20.9365 59.7823 25.2093 59.7823 30.9062C59.7823 36.7456 62.7733 40.8759 69.3248 40.8759C75.8763 40.8759 78.8672 36.6032 78.8672 30.9062C78.8672 25.2093 75.8763 20.9365 69.3248 20.9365ZM69.3248 36.1759C66.6187 36.1759 65.7642 34.0395 65.7642 31.0486C65.7642 28.0577 66.7611 25.9214 69.3248 25.9214C72.0308 25.9214 72.8854 28.0577 72.8854 31.0486C72.8854 33.8971 72.0308 36.1759 69.3248 36.1759Z" fill="#0078DC"/>
<path d="M17.9101 0C12.4979 0 9.64945 2.99091 8.93733 7.26363H6.51612V0.427273H0.534302V19.6545H6.51612V12.2485H8.93733C9.64945 16.8061 12.4979 19.9394 18.0525 19.9394C24.604 19.9394 27.5949 15.6667 27.5949 9.96969C27.4525 4.27273 24.4616 0 17.9101 0ZM17.9101 15.2394C15.204 15.2394 14.3494 13.103 14.3494 10.1121C14.3494 7.12121 15.204 4.98485 17.9101 4.98485C20.6161 4.98485 21.4707 7.12121 21.4707 10.1121C21.4707 12.9606 20.6161 15.097 17.9101 15.2394Z" fill="#0078DC"/>
<path d="M46.3949 40.5909H48.6737C55.0828 40.5909 58.6434 37.4576 58.6434 31.0485C58.6434 24.6394 55.0828 21.5061 48.6737 21.5061H40.4131V47.1425H46.2525V40.5909H46.3949ZM46.3949 35.3212V26.491H48.3888C51.0949 26.491 52.6616 27.4879 52.6616 30.9061C52.6616 34.1819 51.0949 35.3212 48.3888 35.3212H46.3949Z" fill="#0078DC"/>
</g>
<defs>
<clipPath id="clip0_148_8521">
<rect width="78.3333" height="47" fill="white" transform="translate(0.534302)"/>
</clipPath>
</defs>
</svg>
