<svg width="99" height="41" viewBox="0 0 99 41" fill="none" xmlns="http://www.w3.org/2000/svg">
<path fill-rule="evenodd" clip-rule="evenodd" d="M67.2801 20.8768V23.0368H57.5201C57.6687 25.7911 58.8116 27.1511 61.7487 27.1511C63.7373 27.1511 65.8744 26.5111 67.1087 25.6883V28.9911C65.9658 29.7683 64.023 30.3397 61.4287 30.3397C56.2516 30.3397 53.3144 27.4826 53.3144 21.6197C53.3144 16.4768 55.6801 12.7283 60.6173 12.7283C64.663 12.7283 67.2801 14.9568 67.2801 20.8768ZM60.5258 15.9397C58.583 15.9397 57.6001 17.3568 57.5087 20.0426H63.143V19.6997C63.143 17.574 62.5373 15.9397 60.5144 15.9397H60.5258ZM29.9887 19.814V13.0368H34.0687V30.1683H29.9887V23.0026H24.5601V30.1683H20.5144V13.0254H24.5601V19.814H29.9887ZM84.6516 30.1683H80.0573L74.0573 21.7568V30.1683H70.0116V13.0254H74.0573V20.9454L79.7716 13.0368H83.8744L78.1601 20.9454L84.6516 30.1683ZM96.6287 29.3111C95.6344 30.0311 94.3201 30.374 92.4344 30.374C87.0401 30.374 84.4116 27.2426 84.4001 21.6311C84.4001 16.454 87.0859 12.774 92.263 12.774C94.2744 12.774 95.7716 13.1168 96.6287 13.5968V17.0254C95.4397 16.3404 94.0923 15.9779 92.7201 15.974C90.0573 15.974 88.6059 17.8483 88.6059 21.5283C88.6059 25.0026 89.783 27.174 92.6859 27.174C94.3887 27.174 95.6001 26.7168 96.6287 26.0083V29.3226V29.3111ZM50.5144 26.9568H52.3201V33.9283H48.5716V30.134H39.4858V33.9283H35.7373V26.9454H36.9944C38.423 24.0883 38.7087 18.6711 38.7087 14.4883V13.0254H50.5144V26.9568ZM40.7544 26.9568H46.4687V16.2368H42.183V16.7397C42.183 19.6997 41.8858 24.374 40.7544 26.9568Z" fill="#333333"/>
<path d="M17.1092 30.1571V6.5H11.1206C5.08636 6.5 1.93207 9.58571 1.93207 14.1571C1.93207 17.78 3.65778 19.9514 6.75493 22.1571L1.37207 30.1571H5.82921L11.8292 21.1857L9.74921 19.8029C7.23493 18.0886 5.98921 16.7743 5.98921 13.9057C5.98921 11.3914 7.76064 9.68857 11.1321 9.68857H12.9721V30.1457H17.1092V30.1571Z" fill="#333333"/>
</svg>
