<svg width="28" height="24" viewBox="0 0 28 24" fill="none" xmlns="http://www.w3.org/2000/svg">
<path fill-rule="evenodd" clip-rule="evenodd" d="M14.0335 6.04567C12.1529 7.5496 10.9273 9.87725 10.9273 12.4998C10.9273 15.1224 12.1502 17.4713 14.0335 18.954C12.6494 20.0487 10.9035 20.7104 8.99904 20.7104C4.48755 20.7104 0.837158 17.0382 0.837158 12.4998C0.837158 7.96146 4.48755 4.28931 8.99904 4.28931C10.9035 4.28931 12.6494 4.95093 14.0335 6.04567ZM19.0682 20.7106C23.5797 20.7106 27.2301 17.0385 27.2301 12.5001C27.2301 7.98562 23.5797 4.28955 19.0655 4.28955C17.1611 4.28955 15.4151 4.95118 14.0337 6.04591C15.9144 7.54985 17.14 9.87749 17.14 12.5001C17.14 15.1227 15.9381 17.4477 14.0337 18.9542C15.4178 20.049 17.1637 20.7106 19.0682 20.7106Z" fill="white"/>
</svg>
