<svg width="54" height="24" viewBox="0 0 54 24" fill="none" xmlns="http://www.w3.org/2000/svg">
<path fill-rule="evenodd" clip-rule="evenodd" d="M38.8558 11.1372V19.4471H43.4725V14.5227H48.7046C50.9067 14.5064 52.7773 13.0997 53.4827 11.1372H38.8558Z" fill="white"/>
<path fill-rule="evenodd" clip-rule="evenodd" d="M38.2405 4.28931C38.5094 7.68594 41.7228 10.3679 45.6473 10.3679C45.6602 10.3679 53.6746 10.3679 53.6746 10.3679C53.7339 10.0563 53.7649 9.73482 53.7649 9.40606C53.7649 6.59237 51.4948 4.31012 48.6866 4.28945L38.2405 4.28931Z" fill="white"/>
<path fill-rule="evenodd" clip-rule="evenodd" d="M31.4076 10.287L31.4112 10.2793L31.4117 10.2794C31.459 10.1945 31.5497 10.137 31.6538 10.137C31.8042 10.137 31.9267 10.2569 31.9307 10.4063L31.9308 10.4063V19.3703H36.5475V4.28931H31.9308C31.3454 4.30879 30.684 4.73839 30.4381 5.26574L26.7641 13.1445C26.755 13.1767 26.7409 13.2068 26.7225 13.2338L26.7213 13.2364L26.7208 13.2363C26.6652 13.3163 26.5726 13.3687 26.4678 13.3687C26.2979 13.3687 26.1601 13.2309 26.1601 13.0609V4.28931H21.5435V19.3703H26.1601V19.3685C26.7391 19.3383 27.385 18.9135 27.6274 18.3938L31.3981 10.3073C31.401 10.3004 31.4042 10.2936 31.4076 10.287Z" fill="white"/>
<path fill-rule="evenodd" clip-rule="evenodd" d="M14.1687 10.5448L11.4705 19.3703H8.14939L5.44954 10.5395C5.42351 10.398 5.29959 10.2909 5.15065 10.2909C4.98279 10.2909 4.84672 10.427 4.84672 10.5948C4.84672 10.5961 4.84673 10.5974 4.84674 10.5987L4.84672 19.3703H0.230103V4.28931H4.1927H5.37284C6.22231 4.28931 7.1125 4.94855 7.36073 5.76049L9.60752 13.1094C9.71931 13.4751 9.90068 13.4747 10.0123 13.1094L12.2591 5.76049C12.5075 4.94798 13.3975 4.28931 14.247 4.28931L15.4268 4.28931H19.3891V19.3703H14.7724V10.5987C14.7724 10.5974 14.7724 10.5961 14.7724 10.5948C14.7724 10.427 14.6364 10.2909 14.4685 10.2909C14.3177 10.2909 14.1925 10.4008 14.1687 10.5448Z" fill="white"/>
</svg>
