<svg width="54" height="24" viewBox="0 0 54 24" fill="none" xmlns="http://www.w3.org/2000/svg">
<path fill-rule="evenodd" clip-rule="evenodd" d="M11.0547 16.506L9.42471 14.549C9.38648 14.5028 9.36219 14.4468 9.35471 14.3873C9.34723 14.3278 9.35686 14.2675 9.38248 14.2133C9.4081 14.1591 9.44863 14.1134 9.49933 14.0815C9.55003 14.0495 9.60879 14.0327 9.66872 14.033H13.0777C13.2397 13.551 13.3317 13.036 13.3317 12.5C13.3317 10.05 11.5037 7.93698 8.99572 7.93698C6.48772 7.93698 4.65971 10.05 4.65971 12.5C4.65971 14.95 6.48772 17.034 8.99572 17.034C9.75572 17.034 10.4517 16.84 11.0557 16.505L11.0547 16.506ZM18.4287 19.811C18.6057 20.007 18.4607 20.321 18.1937 20.321H14.4737C14.399 20.3211 14.3251 20.3047 14.2574 20.2731C14.1896 20.2415 14.1296 20.1953 14.0817 20.138L13.4517 19.381C12.1249 20.2414 10.5771 20.6986 8.99572 20.697C4.46672 20.697 0.782715 17.02 0.782715 12.5C0.782715 7.97998 4.46672 4.30298 8.99572 4.30298C13.5247 4.30298 17.2087 7.97998 17.2087 12.5C17.2087 14.13 16.7287 15.648 15.9037 16.926L18.4287 19.811ZM52.7977 4.68198H49.7607C49.6539 4.68224 49.5516 4.72479 49.476 4.80031C49.4005 4.87583 49.358 4.97818 49.3577 5.08498V19.918C49.3577 20.141 49.5377 20.321 49.7607 20.321H52.7977C53.0207 20.321 53.2017 20.141 53.2017 19.918V5.08398C53.2017 4.97683 53.1592 4.87407 53.0834 4.79831C53.0076 4.72254 52.9049 4.67998 52.7977 4.67998V4.68198ZM47.6877 4.68198H44.2917C44.2054 4.68165 44.1213 4.70894 44.0517 4.75987C43.9821 4.81079 43.9306 4.88267 43.9047 4.96498L41.2167 13.731L38.2617 4.95498C38.2347 4.87492 38.1831 4.80539 38.1144 4.75622C38.0457 4.70705 37.9632 4.68073 37.8787 4.68098H35.5087C35.4241 4.68067 35.3415 4.70695 35.2726 4.75611C35.2037 4.80528 35.152 4.87484 35.1247 4.95498L32.1707 13.731L29.4827 4.96498C29.4571 4.88248 29.4056 4.81038 29.336 4.75927C29.2663 4.70815 29.1821 4.68072 29.0957 4.68098H25.6987C25.6349 4.68109 25.572 4.69627 25.5152 4.72529C25.4584 4.75431 25.4092 4.79635 25.3717 4.84798C25.3342 4.89912 25.3096 4.95851 25.2999 5.02116C25.2901 5.0838 25.2956 5.14787 25.3157 5.20798L30.3057 20.049C30.3607 20.213 30.5157 20.323 30.6887 20.323H33.3847C33.5587 20.323 33.7127 20.213 33.7677 20.05L36.6937 11.379L39.6187 20.049C39.6737 20.213 39.8287 20.323 40.0017 20.323H42.6987C42.8727 20.323 43.0267 20.213 43.0817 20.049L48.0717 5.20798C48.0919 5.14793 48.0974 5.08393 48.0878 5.02132C48.0782 4.95871 48.0539 4.89928 48.0167 4.84798C47.9791 4.79627 47.9297 4.7542 47.8727 4.72517C47.8157 4.69615 47.7527 4.68101 47.6887 4.68098L47.6877 4.68198ZM24.0297 5.08498V19.918C24.0297 20.141 23.8497 20.321 23.6257 20.321H20.5897C20.4827 20.321 20.3801 20.2786 20.3044 20.203C20.2287 20.1275 20.186 20.025 20.1857 19.918V5.08398C20.1857 4.86098 20.3657 4.67998 20.5897 4.67998H23.6257C23.8487 4.67998 24.0297 4.86098 24.0297 5.08498Z" fill="white"/>
</svg>
