<svg width="120" height="85" viewBox="0 0 120 85" fill="none" xmlns="http://www.w3.org/2000/svg">
<path d="M33.1318 48.4295L44.4449 79.7423C44.4449 79.7423 45.8593 82.6721 47.3739 82.6721C48.8884 82.6721 71.4152 59.2371 71.4152 59.2371L96.4656 10.8525L33.5355 40.3465L33.1318 48.4295Z" fill="#C8DAEA"/>
<path d="M48.1316 56.46L45.9599 79.5406C45.9599 79.5406 45.0509 86.6127 52.1214 79.5406C59.192 72.4684 65.9598 67.0149 65.9598 67.0149" fill="#A9C6D8"/>
<path d="M33.3346 49.5453L10.0633 41.963C10.0633 41.963 7.28213 40.8347 8.17767 38.276C8.36202 37.7484 8.73391 37.2994 9.84638 36.5278C15.0027 32.9337 105.285 0.483739 105.285 0.483739C105.285 0.483739 107.834 -0.375248 109.338 0.196086C109.71 0.311216 110.045 0.523078 110.308 0.809992C110.571 1.09691 110.753 1.44858 110.836 1.82904C110.998 2.50102 111.066 3.19238 111.038 3.88313C111.03 4.48069 110.958 5.03454 110.903 5.90306C110.353 14.775 93.8984 80.9893 93.8984 80.9893C93.8984 80.9893 92.9138 84.8639 89.3865 84.9966C88.5197 85.0246 87.6561 84.8778 86.8472 84.5649C86.0383 84.252 85.3007 83.7794 84.6784 83.1753C77.7564 77.2212 53.8319 61.1428 48.5453 57.6068C48.4261 57.5255 48.3256 57.4196 48.2508 57.2963C48.1759 57.1729 48.1284 57.0349 48.1114 56.8916C48.0375 56.5189 48.4428 56.0573 48.4428 56.0573C48.4428 56.0573 90.1017 19.0278 91.2102 15.1406C91.296 14.8394 90.9718 14.6908 90.5363 14.8227C87.7695 15.8406 39.8044 46.1308 34.5107 49.4738C34.1296 49.5891 33.7269 49.6136 33.3346 49.5453Z" fill="white"/>
</svg>
