<svg width="108" height="23" viewBox="0 0 108 23" fill="none" xmlns="http://www.w3.org/2000/svg">
<g clip-path="url(#clip0_1408_6795)">
<path d="M103.579 6.59766L101.163 12.462C101.163 12.5435 101.08 12.625 101.08 12.7064L100.997 12.8693L100.913 12.7064C100.913 12.625 100.83 12.5435 100.83 12.462L98.4143 6.59766H95.2489L99.4136 16.6975L97.6645 20.5256H100.83L106.661 6.59766H103.579Z" fill="white"/>
<path d="M80.2546 7.16799C79.6715 6.76072 79.0051 6.5164 78.1719 6.43492C76.7557 6.27202 75.4229 6.76072 74.5897 7.73816V6.59782H71.7578V16.6976H74.5897V11.4034C74.5897 10.1816 74.8398 9.9373 75.0066 9.61151C75.3395 9.04134 76.0059 8.71554 76.7557 8.79696C77.5055 8.79696 78.2553 9.12282 78.5882 9.69293C78.8384 10.1002 78.8384 10.5889 78.8384 10.9147C78.8384 11.8107 78.8384 16.6976 78.8384 16.6976H81.6708V10.5889C81.6708 8.95992 81.1706 7.90106 80.2546 7.16799Z" fill="white"/>
<path d="M66.343 6.67891C64.9274 6.19022 63.4278 6.27164 62.0116 6.92329C61.0122 7.3305 60.2624 8.06357 59.6794 8.95954C59.1791 9.77402 58.9296 10.67 58.9296 11.7288C58.9296 12.7877 59.1791 13.6836 59.6794 14.4981C60.179 15.3126 60.8455 15.8828 61.6786 16.3715C62.5112 16.7787 63.5112 17.023 64.4271 17.023C64.9274 17.023 65.4271 16.9416 65.9267 16.8602C66.343 16.7787 66.7599 16.6158 67.1762 16.3715C68.0094 15.8828 68.6758 15.3126 69.1755 14.5796C69.6752 13.765 69.9253 12.8691 69.9253 11.8103C69.8419 9.36675 68.5091 7.4934 66.343 6.67891ZM67.0928 11.7288C67.0928 12.6248 66.7599 13.3578 66.1769 13.8465C65.76 14.2537 65.1769 14.4167 64.3438 14.4167C63.5945 14.4167 63.0109 14.1723 62.5112 13.8465C61.9282 13.3578 61.6786 12.6248 61.5953 11.7288C61.5953 10.7514 61.9282 9.85544 62.678 9.28533C63.0943 8.95954 63.5945 8.79664 64.261 8.79664C64.9274 8.79664 65.4271 8.95954 65.8434 9.28533C66.7599 9.85544 67.1762 10.7514 67.0928 11.7288Z" fill="white"/>
<path d="M55.6806 7.16739C55.1808 6.76011 54.431 6.5158 53.598 6.43432C53.4314 6.43432 53.2648 6.43432 53.0982 6.43432C51.932 6.43432 51.0157 6.92301 50.1826 7.90045L50.0161 8.06335H49.6828C49.433 7.73756 49.1831 7.4117 48.8498 7.24881C48.35 6.76011 47.6836 6.5158 46.8506 6.43432C45.5178 6.27142 44.4349 6.67869 43.5186 7.65608V6.59722H40.6863V16.697H43.5186V11.4028V11.3213C43.5186 10.181 43.6851 9.9367 43.8518 9.61091C44.1849 9.04074 44.8514 8.71494 45.5178 8.71494C46.1842 8.71494 46.8506 9.04074 47.1838 9.61091C47.4337 10.0181 47.4337 10.5068 47.4337 10.9955V16.6156H50.3493V11.2399C50.3493 10.2625 50.5158 9.85522 50.6825 9.52943C51.0156 8.95926 51.6821 8.71494 52.3485 8.71494C53.0149 8.71494 53.598 9.12216 53.9312 9.61091C54.0978 9.9367 54.1811 10.3439 54.1811 10.6697C54.1811 10.8326 54.1811 10.9141 54.1811 11.077V16.697H57.0133V10.5883C57.0133 10.0181 56.9301 9.52943 56.8468 9.04074C56.6802 8.22625 56.2637 7.57466 55.6806 7.16739Z" fill="white"/>
<path d="M92.4163 13.6022C92 14.0095 91.0001 14.7425 89.6672 14.824C88.5845 14.824 87.668 14.5796 87.0849 13.928C86.8354 13.6022 86.5852 13.2764 86.5019 12.8692H94.4156V12.7877C94.499 12.3805 94.499 11.9732 94.499 11.6474C94.499 11.3216 94.4156 10.8329 94.2488 10.1813C93.9159 9.04101 93.2495 8.1451 92.3329 7.41203C91.3336 6.67897 90.3337 6.43465 90.0841 6.43465C88.0015 6.10885 85.6687 7.00476 84.5026 8.87811C83.6694 10.1813 83.6694 11.4845 83.7528 11.8917C83.7528 12.3805 83.8362 13.928 85.0856 15.2312C86.5019 16.7788 88.5845 16.8602 89.2509 16.9417C92.0834 17.0231 93.9993 15.3126 94.4156 14.9054L92.4163 13.6022ZM87.5018 9.3668C87.9181 9.04101 88.4178 8.87811 89.0842 8.87811C89.7506 8.87811 90.2503 9.04101 90.6672 9.3668C91.0835 9.6926 91.417 10.0999 91.5831 10.67H86.5019C86.752 10.0999 87.0849 9.6926 87.5018 9.3668Z" fill="white"/>
<path d="M21.0274 0C14.6133 0 9.53186 5.04988 9.53186 11.2401C9.53186 17.4303 14.6965 22.4802 21.0274 22.4802C27.3584 22.4802 32.523 17.4303 32.523 11.2401C32.6063 5.04988 27.3584 0 21.0274 0ZM21.0274 15.394C18.695 15.394 16.6958 13.5207 16.6958 11.2401C16.6958 8.95948 18.6117 7.08613 21.0274 7.08613C23.4432 7.08613 25.3591 8.95948 25.3591 11.2401C25.2758 13.5207 23.4432 15.394 21.0274 15.394Z" fill="white"/>
<path d="M9.53168 3.3396V19.711H5.44987L0.201904 3.3396H9.53168Z" fill="white"/>
</g>
<defs>
<clipPath id="clip0_1408_6795">
<rect width="106.95" height="23" fill="white" transform="translate(0.201904)"/>
</clipPath>
</defs>
</svg>
