<svg width="47" height="24" viewBox="0 0 47 24" fill="none" xmlns="http://www.w3.org/2000/svg">
<path d="M20.295 19.2296H16.501L18.874 4.5564H22.6679L20.295 19.2296Z" fill="white"/>
<path d="M34.0498 4.914C33.3014 4.61711 32.1145 4.28931 30.6468 4.28931C26.9001 4.28931 24.2617 6.28726 24.2455 9.14373C24.2144 11.2512 26.1345 12.4218 27.5706 13.1245C29.0385 13.8426 29.5375 14.3112 29.5375 14.9513C29.5225 15.9343 28.3514 16.3874 27.259 16.3874C25.7443 16.3874 24.9326 16.1538 23.6992 15.6069L23.1996 15.3725L22.6687 18.6663C23.5585 19.0717 25.198 19.4314 26.9001 19.4472C30.8811 19.4472 33.4728 17.4802 33.5035 14.4361C33.5187 12.7658 32.5047 11.4859 30.3188 10.44C28.9918 9.76864 28.1792 9.31594 28.1792 8.629C28.1947 8.00451 28.8665 7.36487 30.3645 7.36487C31.5979 7.33354 32.5041 7.63002 33.1906 7.9267L33.5338 8.08252L34.0498 4.914Z" fill="white"/>
<path d="M39.0931 14.0314C39.4056 13.1885 40.6079 9.92598 40.6079 9.92598C40.5921 9.95731 40.9197 9.06746 41.1071 8.52118L41.3722 9.78552C41.3722 9.78552 42.0907 13.2978 42.2467 14.0314C41.6538 14.0314 39.8425 14.0314 39.0931 14.0314ZM43.7764 4.5564H40.8417C39.9367 4.5564 39.2492 4.82155 38.8587 5.77384L33.2231 19.2294H37.2041C37.2041 19.2294 37.8595 17.4184 38.0004 17.0284C38.4371 17.0284 42.3098 17.0284 42.8716 17.0284C42.9805 17.5435 43.3243 19.2294 43.3243 19.2294H46.8372L43.7764 4.5564Z" fill="white"/>
<path d="M13.3327 4.5564L9.61711 14.5621L9.21109 12.5329C8.52415 10.1913 6.36976 7.64731 3.96558 6.38236L7.36894 19.2141H11.381L17.3446 4.5564H13.3327Z" fill="white"/>
<path d="M6.16669 4.5564H0.0624488L0 4.85287C4.76169 6.07053 7.91526 9.00563 9.21092 12.5335L7.88393 5.78982C7.66547 4.85267 6.99409 4.58731 6.16669 4.5564Z" fill="white"/>
</svg>
