<svg width="120" height="85" viewBox="0 0 120 85" fill="none" xmlns="http://www.w3.org/2000/svg">
<path d="M116.281 11.8125C116.938 9.1875 116.281 7 112.344 7H99.4375C96.1562 7 94.625 8.75 93.75 10.7188C93.75 10.7188 87.1875 26.6875 78 37.1875C74.9375 40.0312 73.625 41.125 71.875 41.125C71.2188 41.125 69.9062 40.0312 69.9062 37.4063V11.8125C69.9062 8.53125 69.0312 7 66.1875 7H46.0625C43.875 7 42.7812 8.53125 42.7812 10.0625C42.7812 13.125 47.375 13.7813 47.8125 22.5313V41.5625C47.8125 45.7188 47.1562 46.5938 45.4062 46.5938C41.0312 46.5938 30.5313 30.4062 24.1875 12.0312C22.875 8.53125 21.5625 7 18.2812 7H5.375C1.875 7 1 8.75 1 10.7188C1 14.2188 5.375 31.0625 21.3438 53.5938C32.0625 68.9063 47.1562 77 60.7188 77C68.8125 77 69.9062 75.25 69.9062 72.1875C69.9062 57.5312 69.25 56 73.1875 56C75.1562 56 78.4375 57.0938 86.0938 64.5313C94.8438 73.2812 96.375 77 101.188 77H114.094C117.813 77 119.563 75.25 118.469 71.5312C116.063 64.0938 99.6562 48.3438 98.7812 47.25C96.8125 44.8438 97.4688 43.75 98.7812 41.5625C98.7812 41.5625 114.531 19.25 116.281 11.8125Z" fill="white"/>
</svg>
