<svg width="108" height="24" viewBox="0 0 108 24" fill="none" xmlns="http://www.w3.org/2000/svg">
<g clip-path="url(#clip0_170_4517)">
<path d="M103.579 7.59766L101.163 13.462C101.163 13.5435 101.08 13.625 101.08 13.7064L100.997 13.8693L100.913 13.7064C100.913 13.625 100.83 13.5435 100.83 13.462L98.4143 7.59766H95.2489L99.4136 17.6975L97.6645 21.5256H100.83L106.661 7.59766H103.579Z" fill="white"/>
<path d="M80.2546 8.16799C79.6715 7.76072 79.0051 7.5164 78.1719 7.43492C76.7557 7.27202 75.4229 7.76072 74.5897 8.73816V7.59782H71.7578V17.6976H74.5897V12.4034C74.5897 11.1816 74.8398 10.9373 75.0066 10.6115C75.3395 10.0413 76.0059 9.71554 76.7557 9.79696C77.5055 9.79696 78.2553 10.1228 78.5882 10.6929C78.8384 11.1002 78.8384 11.5889 78.8384 11.9147C78.8384 12.8107 78.8384 17.6976 78.8384 17.6976H81.6708V11.5889C81.6708 9.95992 81.1706 8.90106 80.2546 8.16799Z" fill="white"/>
<path d="M66.343 7.67891C64.9274 7.19022 63.4278 7.27164 62.0116 7.92329C61.0122 8.3305 60.2624 9.06357 59.6794 9.95954C59.1791 10.774 58.9296 11.67 58.9296 12.7288C58.9296 13.7877 59.1791 14.6836 59.6794 15.4981C60.179 16.3126 60.8455 16.8828 61.6786 17.3715C62.5112 17.7787 63.5112 18.023 64.4271 18.023C64.9274 18.023 65.4271 17.9416 65.9267 17.8602C66.343 17.7787 66.7599 17.6158 67.1762 17.3715C68.0094 16.8828 68.6758 16.3126 69.1755 15.5796C69.6752 14.765 69.9253 13.8691 69.9253 12.8103C69.8419 10.3668 68.5091 8.4934 66.343 7.67891ZM67.0928 12.7288C67.0928 13.6248 66.7599 14.3578 66.1769 14.8465C65.76 15.2537 65.1769 15.4167 64.3438 15.4167C63.5945 15.4167 63.0109 15.1723 62.5112 14.8465C61.9282 14.3578 61.6786 13.6248 61.5953 12.7288C61.5953 11.7514 61.9282 10.8554 62.678 10.2853C63.0943 9.95954 63.5945 9.79664 64.261 9.79664C64.9274 9.79664 65.4271 9.95954 65.8434 10.2853C66.7599 10.8554 67.1762 11.7514 67.0928 12.7288Z" fill="white"/>
<path d="M55.6806 8.16739C55.1808 7.76011 54.431 7.5158 53.598 7.43432C53.4314 7.43432 53.2648 7.43432 53.0982 7.43432C51.932 7.43432 51.0157 7.92301 50.1826 8.90045L50.0161 9.06335H49.6828C49.433 8.73756 49.1831 8.4117 48.8498 8.24881C48.35 7.76011 47.6836 7.5158 46.8506 7.43432C45.5178 7.27142 44.4349 7.67869 43.5186 8.65608V7.59722H40.6863V17.697H43.5186V12.4028V12.3213C43.5186 11.181 43.6851 10.9367 43.8518 10.6109C44.1849 10.0407 44.8514 9.71494 45.5178 9.71494C46.1842 9.71494 46.8506 10.0407 47.1838 10.6109C47.4337 11.0181 47.4337 11.5068 47.4337 11.9955V17.6156H50.3493V12.2399C50.3493 11.2625 50.5158 10.8552 50.6825 10.5294C51.0156 9.95926 51.6821 9.71494 52.3485 9.71494C53.0149 9.71494 53.598 10.1222 53.9312 10.6109C54.0978 10.9367 54.1811 11.3439 54.1811 11.6697C54.1811 11.8326 54.1811 11.9141 54.1811 12.077V17.697H57.0133V11.5883C57.0133 11.0181 56.9301 10.5294 56.8468 10.0407C56.6802 9.22625 56.2637 8.57466 55.6806 8.16739Z" fill="white"/>
<path d="M92.4163 14.6022C92 15.0095 91.0001 15.7425 89.6672 15.824C88.5845 15.824 87.668 15.5796 87.0849 14.928C86.8354 14.6022 86.5852 14.2764 86.5019 13.8692H94.4156V13.7877C94.499 13.3805 94.499 12.9732 94.499 12.6474C94.499 12.3216 94.4156 11.8329 94.2488 11.1813C93.9159 10.041 93.2495 9.1451 92.3329 8.41203C91.3336 7.67897 90.3337 7.43465 90.0841 7.43465C88.0015 7.10885 85.6687 8.00476 84.5026 9.87811C83.6694 11.1813 83.6694 12.4845 83.7528 12.8917C83.7528 13.3805 83.8362 14.928 85.0856 16.2312C86.5019 17.7788 88.5845 17.8602 89.2509 17.9417C92.0834 18.0231 93.9993 16.3126 94.4156 15.9054L92.4163 14.6022ZM87.5018 10.3668C87.9181 10.041 88.4178 9.87811 89.0842 9.87811C89.7506 9.87811 90.2503 10.041 90.6672 10.3668C91.0835 10.6926 91.417 11.0999 91.5831 11.67H86.5019C86.752 11.0999 87.0849 10.6926 87.5018 10.3668Z" fill="white"/>
<path d="M21.0274 1C14.6133 1 9.53186 6.04988 9.53186 12.2401C9.53186 18.4303 14.6965 23.4802 21.0274 23.4802C27.3584 23.4802 32.523 18.4303 32.523 12.2401C32.6063 6.04988 27.3584 1 21.0274 1ZM21.0274 16.394C18.695 16.394 16.6958 14.5207 16.6958 12.2401C16.6958 9.95948 18.6117 8.08613 21.0274 8.08613C23.4432 8.08613 25.3591 9.95948 25.3591 12.2401C25.2758 14.5207 23.4432 16.394 21.0274 16.394Z" fill="white"/>
<path d="M9.53168 4.3396V20.711H5.44987L0.201904 4.3396H9.53168Z" fill="white"/>
</g>
<defs>
<clipPath id="clip0_170_4517">
<rect width="106.95" height="23" fill="white" transform="translate(0.201904 1)"/>
</clipPath>
</defs>
</svg>
