<svg width="120" height="85" viewBox="0 0 120 85" fill="none" xmlns="http://www.w3.org/2000/svg">
<path d="M117.227 13.9771C115.859 8.86637 111.842 4.85012 106.731 3.48206C97.4779 1 60.3542 1 60.3542 1C60.3542 1 23.231 1 13.977 3.48206C8.86637 4.85012 4.85012 8.86637 3.48206 13.9771C1 23.231 1 42.55 1 42.55C1 42.55 1 61.8691 3.48206 71.1231C4.85012 76.2337 8.86637 80.25 13.977 81.6178C23.231 84.1 60.3542 84.1 60.3542 84.1C60.3542 84.1 97.4779 84.1 106.731 81.6178C111.842 80.25 115.859 76.2337 117.227 71.1231C119.709 61.8691 119.709 42.55 119.709 42.55C119.709 42.55 119.699 23.231 117.227 13.9771Z" fill="white"/>
<path d="M48.4746 60.3557L79.3147 42.5515L48.4746 24.7471V60.3557Z" fill="#1385E1"/>
</svg>
